<svg height="376" viewBox="0 0 486 282" width="648" xmlns="http://www.w3.org/2000/svg" xmlns:xlink="http://www.w3.org/1999/xlink"><defs><style>*{stroke-linecap:butt;stroke-linejoin:round}</style></defs><g id="figure_1"><path d="M0 282.726h486.502V0H0z" fill="#fff" id="patch_1"/><g id="axes_1"><path d="M29.402 244.8h446.4V23.04h-446.4z" fill="#fff" id="patch_2"/><g id="PathCollection_1"><path clip-path="url(#p4f1d321147)" d="M339.006 61.772a1.773 1.773 0 1 0 0-3.545 1.773 1.773 0 0 0 0 3.545zM283.555 61.772a1.773 1.773 0 1 0 0-3.545 1.773 1.773 0 0 0 0 3.545zM265.07 61.772a1.773 1.773 0 1 0 0-3.545 1.773 1.773 0 0 0 0 3.545zM255.829 61.772a1.773 1.773 0 1 0 0-3.545 1.773 1.773 0 0 0 0 3.545zM251.208 61.772a1.773 1.773 0 1 0 0-3.545 1.773 1.773 0 0 0 0 3.545zM246.587 61.772a1.773 1.773 0 1 0 0-3.545 1.773 1.773 0 0 0 0 3.545zM241.966 62.507a2.507 2.507 0 1 0 0-5.014 2.507 2.507 0 0 0 0 5.014zM237.345 61.772a1.773 1.773 0 1 0 0-3.545 1.773 1.773 0 0 0 0 3.545zM232.724 61.772a1.773 1.773 0 1 0 0-3.545 1.773 1.773 0 0 0 0 3.545zM223.482 62.507a2.507 2.507 0 1 0 0-5.014 2.507 2.507 0 0 0 0 5.014zM218.861 61.772a1.773 1.773 0 1 0 0-3.545 1.773 1.773 0 0 0 0 3.545zM214.24 62.507a2.507 2.507 0 1 0 0-5.014 2.507 2.507 0 0 0 0 5.014z" fill="#a2d5ed" stroke="#a2d5ed"/><path clip-path="url(#p4f1d321147)" d="M209.62 62.507a2.507 2.507 0 1 0 0-5.014 2.507 2.507 0 0 0 0 5.014zM204.998 61.772a1.773 1.773 0 1 0 0-3.545 1.773 1.773 0 0 0 0 3.545zM200.377 61.772a1.773 1.773 0 1 0 0-3.545 1.773 1.773 0 0 0 0 3.545zM154.168 62.507a2.507 2.507 0 1 0 0-5.014 2.507 2.507 0 0 0 0 5.014zM121.82 61.772a1.773 1.773 0 1 0 0-3.545 1.773 1.773 0 0 0 0 3.545zM103.337 61.772a1.773 1.773 0 1 0 0-3.545 1.773 1.773 0 0 0 0 3.545zM47.885 61.772a1.773 1.773 0 1 0 0-3.545 1.773 1.773 0 0 0 0 3.545z" fill="#a2d5ed" stroke="#a2d5ed"/><path clip-path="url(#p4f1d321147)" d="M274.313 98.732a1.773 1.773 0 1 0 0-3.545 1.773 1.773 0 0 0 0 3.545zM260.45 98.732a1.773 1.773 0 1 0 0-3.545 1.773 1.773 0 0 0 0 3.545zM241.966 98.732a1.773 1.773 0 1 0 0-3.545 1.773 1.773 0 0 0 0 3.545zM232.724 98.732a1.773 1.773 0 1 0 0-3.545 1.773 1.773 0 0 0 0 3.545zM223.482 98.732a1.773 1.773 0 1 0 0-3.545 1.773 1.773 0 0 0 0 3.545zM200.377 98.732a1.773 1.773 0 1 0 0-3.545 1.773 1.773 0 0 0 0 3.545zM186.514 98.732a1.773 1.773 0 1 0 0-3.545 1.773 1.773 0 0 0 0 3.545zM181.893 98.732a1.773 1.773 0 1 0 0-3.545 1.773 1.773 0 0 0 0 3.545zM177.272 98.732a1.773 1.773 0 1 0 0-3.545 1.773 1.773 0 0 0 0 3.545zM172.651 98.732a1.773 1.773 0 1 0 0-3.545 1.773 1.773 0 0 0 0 3.545zM168.03 99.467a2.507 2.507 0 1 0 0-5.014 2.507 2.507 0 0 0 0 5.014zM163.41 98.732a1.773 1.773 0 1 0 0-3.545 1.773 1.773 0 0 0 0 3.545zM144.926 98.732a1.773 1.773 0 1 0 0-3.545 1.773 1.773 0 0 0 0 3.545z" fill="#be98c7" stroke="#be98c7"/><path clip-path="url(#p4f1d321147)" d="M140.305 100.03a3.07 3.07 0 1 0 0-6.14 3.07 3.07 0 0 0 0 6.14zM131.063 98.732a1.773 1.773 0 1 0 0-3.545 1.773 1.773 0 0 0 0 3.545zM126.442 98.732a1.773 1.773 0 1 0 0-3.545 1.773 1.773 0 0 0 0 3.545zM107.958 98.732a1.773 1.773 0 1 0 0-3.545 1.773 1.773 0 0 0 0 3.545zM94.095 98.732a1.773 1.773 0 1 0 0-3.545 1.773 1.773 0 0 0 0 3.545zM70.99 98.732a1.773 1.773 0 1 0 0-3.545 1.773 1.773 0 0 0 0 3.545zM43.264 98.732a1.773 1.773 0 1 0 0-3.545 1.773 1.773 0 0 0 0 3.545zM38.643 98.732a1.773 1.773 0 1 0 0-3.545 1.773 1.773 0 0 0 0 3.545zM34.023 99.467a2.507 2.507 0 1 0 0-5.014 2.507 2.507 0 0 0 0 5.014z" fill="#be98c7" stroke="#be98c7"/><path clip-path="url(#p4f1d321147)" d="M29.402 99.467a2.507 2.507 0 1 0 0-5.014 2.507 2.507 0 0 0 0 5.014z" fill="#be98c7" stroke="#be98c7"/><path clip-path="url(#p4f1d321147)" d="M375.974 135.692a1.773 1.773 0 1 0 0-3.545 1.773 1.773 0 0 0 0 3.545zM329.764 135.692a1.773 1.773 0 1 0 0-3.545 1.773 1.773 0 0 0 0 3.545zM315.901 135.692a1.773 1.773 0 1 0 0-3.545 1.773 1.773 0 0 0 0 3.545zM292.797 136.99a3.07 3.07 0 1 0 0-6.14 3.07 3.07 0 0 0 0 6.14z" fill="#f8941d" stroke="#f8941d"/><path clip-path="url(#p4f1d321147)" d="M288.176 135.692a1.773 1.773 0 1 0 0-3.545 1.773 1.773 0 0 0 0 3.545zM278.934 135.692a1.773 1.773 0 1 0 0-3.545 1.773 1.773 0 0 0 0 3.545zM274.313 136.427a2.507 2.507 0 1 0 0-5.014 2.507 2.507 0 0 0 0 5.014zM265.07 135.692a1.773 1.773 0 1 0 0-3.545 1.773 1.773 0 0 0 0 3.545zM260.45 135.692a1.773 1.773 0 1 0 0-3.545 1.773 1.773 0 0 0 0 3.545zM232.724 135.692a1.773 1.773 0 1 0 0-3.545 1.773 1.773 0 0 0 0 3.545zM204.998 135.692a1.773 1.773 0 1 0 0-3.545 1.773 1.773 0 0 0 0 3.545zM191.135 136.427a2.507 2.507 0 1 0 0-5.014 2.507 2.507 0 0 0 0 5.014zM177.272 135.692a1.773 1.773 0 1 0 0-3.545 1.773 1.773 0 0 0 0 3.545zM172.651 135.692a1.773 1.773 0 1 0 0-3.545 1.773 1.773 0 0 0 0 3.545zM117.2 135.692a1.773 1.773 0 1 0 0-3.545 1.773 1.773 0 0 0 0 3.545zM84.853 135.692a1.773 1.773 0 1 0 0-3.545 1.773 1.773 0 0 0 0 3.545zM75.611 135.692a1.773 1.773 0 1 0 0-3.545 1.773 1.773 0 0 0 0 3.545zM70.99 135.692a1.773 1.773 0 1 0 0-3.545 1.773 1.773 0 0 0 0 3.545zM66.37 135.692a1.773 1.773 0 1 0 0-3.545 1.773 1.773 0 0 0 0 3.545zM38.643 135.692a1.773 1.773 0 1 0 0-3.545 1.773 1.773 0 0 0 0 3.545zM29.402 135.692a1.773 1.773 0 1 0 0-3.545 1.773 1.773 0 0 0 0 3.545z" fill="#f8941d" stroke="#f8941d"/><path clip-path="url(#p4f1d321147)" d="M454.53 172.652a1.773 1.773 0 1 0 0-3.545 1.773 1.773 0 0 0 0 3.545zM334.385 172.652a1.773 1.773 0 1 0 0-3.545 1.773 1.773 0 0 0 0 3.545zM325.143 172.652a1.773 1.773 0 1 0 0-3.545 1.773 1.773 0 0 0 0 3.545zM297.418 172.652a1.773 1.773 0 1 0 0-3.545 1.773 1.773 0 0 0 0 3.545zM288.176 172.652a1.773 1.773 0 1 0 0-3.545 1.773 1.773 0 0 0 0 3.545zM283.555 172.652a1.773 1.773 0 1 0 0-3.545 1.773 1.773 0 0 0 0 3.545zM274.313 172.652a1.773 1.773 0 1 0 0-3.545 1.773 1.773 0 0 0 0 3.545zM260.45 172.652a1.773 1.773 0 1 0 0-3.545 1.773 1.773 0 0 0 0 3.545zM255.829 172.652a1.773 1.773 0 1 0 0-3.545 1.773 1.773 0 0 0 0 3.545zM251.208 172.652a1.773 1.773 0 1 0 0-3.545 1.773 1.773 0 0 0 0 3.545zM232.724 172.652a1.773 1.773 0 1 0 0-3.545 1.773 1.773 0 0 0 0 3.545zM223.482 173.387a2.507 2.507 0 1 0 0-5.014 2.507 2.507 0 0 0 0 5.014zM214.24 172.652a1.773 1.773 0 1 0 0-3.545 1.773 1.773 0 0 0 0 3.545zM181.893 172.652a1.773 1.773 0 1 0 0-3.545 1.773 1.773 0 0 0 0 3.545zM172.651 172.652a1.773 1.773 0 1 0 0-3.545 1.773 1.773 0 0 0 0 3.545zM149.547 172.652a1.773 1.773 0 1 0 0-3.545 1.773 1.773 0 0 0 0 3.545zM121.82 172.652a1.773 1.773 0 1 0 0-3.545 1.773 1.773 0 0 0 0 3.545zM117.2 172.652a1.773 1.773 0 1 0 0-3.545 1.773 1.773 0 0 0 0 3.545z" fill="#b1d61b" stroke="#b1d61b"/><path clip-path="url(#p4f1d321147)" d="M412.942 209.612a1.773 1.773 0 1 0 0-3.545 1.773 1.773 0 0 0 0 3.545zM371.353 209.612a1.773 1.773 0 1 0 0-3.545 1.773 1.773 0 0 0 0 3.545zM325.143 209.612a1.773 1.773 0 1 0 0-3.545 1.773 1.773 0 0 0 0 3.545zM292.797 209.612a1.773 1.773 0 1 0 0-3.545 1.773 1.773 0 0 0 0 3.545zM288.176 210.347a2.507 2.507 0 1 0 0-5.014 2.507 2.507 0 0 0 0 5.014zM265.07 209.612a1.773 1.773 0 1 0 0-3.545 1.773 1.773 0 0 0 0 3.545z" fill="#03c070" stroke="#03c070"/><path clip-path="url(#p4f1d321147)" d="M260.45 210.91a3.07 3.07 0 1 0 0-6.14 3.07 3.07 0 0 0 0 6.14zM246.587 209.612a1.773 1.773 0 1 0 0-3.545 1.773 1.773 0 0 0 0 3.545zM237.345 209.612a1.773 1.773 0 1 0 0-3.545 1.773 1.773 0 0 0 0 3.545zM209.62 209.612a1.773 1.773 0 1 0 0-3.545 1.773 1.773 0 0 0 0 3.545zM204.998 209.612a1.773 1.773 0 1 0 0-3.545 1.773 1.773 0 0 0 0 3.545zM191.135 209.612a1.773 1.773 0 1 0 0-3.545 1.773 1.773 0 0 0 0 3.545zM177.272 210.347a2.507 2.507 0 1 0 0-5.014 2.507 2.507 0 0 0 0 5.014zM126.442 209.612a1.773 1.773 0 1 0 0-3.545 1.773 1.773 0 0 0 0 3.545zM112.579 209.612a1.773 1.773 0 1 0 0-3.545 1.773 1.773 0 0 0 0 3.545zM84.853 209.612a1.773 1.773 0 1 0 0-3.545 1.773 1.773 0 0 0 0 3.545zM38.643 209.612a1.773 1.773 0 1 0 0-3.545 1.773 1.773 0 0 0 0 3.545zM34.023 209.612a1.773 1.773 0 1 0 0-3.545 1.773 1.773 0 0 0 0 3.545z" fill="#03c070" stroke="#03c070"/></g><g id="PathCollection_2" fill-opacity=".5" stroke-opacity=".5" stroke-width="1.5"><path clip-path="url(#p4f1d321147)" d="M212.315 71.18V48.82" fill="#a2d5ed" stroke="#a2d5ed"/><path clip-path="url(#p4f1d321147)" d="M141.295 108.14V85.78" fill="#be98c7" stroke="#be98c7"/><path clip-path="url(#p4f1d321147)" d="M207.77 145.1v-22.36" fill="#f8941d" stroke="#f8941d"/><path clip-path="url(#p4f1d321147)" d="M245.37 182.06V159.7" fill="#b1d61b" stroke="#b1d61b"/><path clip-path="url(#p4f1d321147)" d="M221.172 219.02v-22.36" fill="#03c070" stroke="#03c070"/></g><g id="matplotlib.axis_1"><g id="xtick_1"><g id="line2d_1"><defs><path d="M0 0v3.5" id="m952e0415a4" stroke="#000" stroke-width=".8"/></defs><use x="29.402" xlink:href="#m952e0415a4" y="244.8" stroke="#000" stroke-width=".8"/></g><g id="text_1"><defs><path d="M23.703 69.5q4.297 0 8.25-2.547 3.953-2.547 6.89-6.953 2.954-4.406 4.704-10.36 1.75-5.937 1.75-12.734 0-6.703-1.703-12.61-1.688-5.89-4.64-10.343-2.954-4.453-6.86-7-3.89-2.547-8.297-2.547-4.297 0-8.25 2.5-3.953 2.5-6.953 6.844-3 4.344-4.75 10.297t-1.75 12.75q0 6.906 1.75 12.906 1.75 6 4.703 10.39Q11.5 64.5 15.39 67q3.906 2.5 8.312 2.5zm0-61.406q5.5 0 7.5 7t2 21.812q0 14.797-2.062 21.844-2.047 7.047-7.438 7.047-5.406 0-7.453-7-2.047-7-2.047-21.89 0-28.813 9.5-28.813z" id="STSongti-SC-Black-30"/></defs><use xlink:href="#STSongti-SC-Black-30" transform="matrix(.1 0 0 -.1 27.056 259)"/></g></g><g id="xtick_2"><use x="121.821" xlink:href="#m952e0415a4" y="244.8" stroke="#000" stroke-width=".8" id="line2d_2"/><g id="text_2"><defs><path d="M42.594 5.703q-3.594.094-7.797.188Q30.594 6 24.094 6 17.5 6 12.14 5.953q-5.344-.047-8.844-.25.297 2.39.797 4.594.5 2.203 1.797 4.656 1.312 2.453 3.562 5.344 2.25 2.906 6.047 6.797l3.703 3.812q3.89 3.89 6.188 6.782 2.312 2.906 3.5 5.25 1.203 2.359 1.5 4.453.312 2.109.312 4.515 0 4.688-2.906 7.485-2.89 2.812-7.797 2.812-5.094 0-8.344-3.312-3.25-3.297-4.453-9.485l-3.11 1.188q1.407 9.203 6.75 14.047 5.36 4.859 13.36 4.859 3.594 0 6.797-1t5.594-2.953q2.406-1.953 3.86-4.797 1.452-2.844 1.452-6.547 0-3.906-1.406-7.203t-3.813-6.25q-2.39-2.953-5.546-5.656-3.141-2.688-6.547-5.297l-3-2.39q-2.594-2.11-5.5-5.11-2.89-3-5.39-7h21.702q2.5 0 3.797.5 1.297.5 2.047 1.64.75 1.157 1.297 2.907.547 1.75 1.453 4.156h3.094z" id="STSongti-SC-Black-32"/></defs><g transform="matrix(.1 0 0 -.1 117.13 259)"><use xlink:href="#STSongti-SC-Black-32"/><use x="46.9" xlink:href="#STSongti-SC-Black-30"/></g></g></g><g id="xtick_3"><use x="214.24" xlink:href="#m952e0415a4" y="244.8" stroke="#000" stroke-width=".8" id="line2d_3"/><g id="text_3"><defs><path d="M32.594 69.5h4.703V28.797h8.297v-6.39h-8.297v-18H26.094v18H1.906V27.5l13.188 18q4.5 6 8.797 12 4.312 6 8.703 12zm-6.5-40.703v25.406Q22.704 49.5 20.14 46q-2.547-3.5-4.641-6.36-2.094-2.843-3.953-5.453-1.844-2.593-3.844-5.39z" id="STSongti-SC-Black-34"/></defs><g transform="matrix(.1 0 0 -.1 209.55 259)"><use xlink:href="#STSongti-SC-Black-34"/><use x="46.9" xlink:href="#STSongti-SC-Black-30"/></g></g></g><g id="xtick_4"><use x="306.659" xlink:href="#m952e0415a4" y="244.8" stroke="#000" stroke-width=".8" id="line2d_4"/><g id="text_4"><defs><path d="M38.406 69.797l.797-1.89q-5.797-3.204-10.36-6.563-4.546-3.344-7.655-7.75-3.094-4.39-4.688-10.453-1.594-6.047-1.594-14.641 0-2.797.297-6.406.297-3.594 1.25-6.844.953-3.25 2.844-5.453 1.906-2.203 5.11-2.203 4.093 0 6.64 3.953 2.547 3.953 2.547 12.86 0 7.5-2.407 11.25-2.39 3.75-6.89 3.75-1.89 0-3.703-.813l-.797 2.61q1.61.702 3.36 1.046 1.75.344 4.14.344 8.297 0 12.703-4.703 4.406-4.688 4.406-12.485 0-4.812-1.656-8.656-1.656-3.844-4.453-6.594-2.797-2.75-6.5-4.25t-7.89-1.5q-5.313 0-9.157 1.89-3.844 1.907-6.406 5.25-2.547 3.36-3.75 7.86-1.188 4.5-1.188 9.688 0 8.812 2.75 15.656 2.75 6.844 7.5 11.844 4.75 5 11.14 8.25 6.407 3.25 13.61 4.953z" id="STSongti-SC-Black-36"/></defs><g transform="matrix(.1 0 0 -.1 301.969 259)"><use xlink:href="#STSongti-SC-Black-36"/><use x="46.9" xlink:href="#STSongti-SC-Black-30"/></g></g></g><g id="xtick_5"><use x="399.079" xlink:href="#m952e0415a4" y="244.8" stroke="#000" stroke-width=".8" id="line2d_5"/><g id="text_5"><defs><path d="M16.703 37Q4.406 43.094 4.406 53.5q0 3.094 1.344 5.938 1.344 2.859 3.89 5.109 2.563 2.25 6.063 3.594 3.5 1.359 7.89 1.359 3.907 0 7.157-1.11 3.25-1.093 5.594-3 2.36-1.89 3.656-4.437 1.297-2.547 1.297-5.453t-.86-5q-.843-2.094-2.343-3.75-1.5-1.656-3.703-3.11-2.188-1.437-4.891-3.046 4.906-2.39 7.703-4.703 2.797-2.297 4.14-4.547 1.36-2.25 1.657-4.5.297-2.25.297-4.438 0-3.812-1.656-7.11Q40 12 37.25 9.595q-2.75-2.39-6.453-3.797-3.703-1.39-7.89-1.39-4.407 0-8.063 1.25-3.64 1.25-6.25 3.343-2.594 2.094-4 4.938-1.39 2.859-1.39 6.062 0 2.406.64 4.75.656 2.344 2.25 4.547 1.61 2.203 4.203 4.094 2.61 1.906 6.406 3.609zm9.594 5.297q3.703 2.297 5.297 5.297 1.61 3 1.61 7.5 0 4.703-2.454 7.703-2.453 3-7.75 3-4.906 0-7.203-2.75-2.297-2.75-2.297-6.844 0-4.11 2.844-7.36 2.86-3.25 9.953-6.546zm-6.703-6.89Q17.297 34 15.797 32.452q-1.5-1.547-2.36-3.297-.843-1.75-1.187-3.812-.344-2.047-.344-4.547 0-6.094 3.344-9.703Q18.594 7.5 23.703 7.5q10.094 0 10.094 11.797 0 2.797-.86 5-.843 2.203-2.593 4.094-1.75 1.906-4.453 3.609-2.688 1.703-6.297 3.406z" id="STSongti-SC-Black-38"/></defs><g transform="matrix(.1 0 0 -.1 394.388 259)"><use xlink:href="#STSongti-SC-Black-38"/><use x="46.9" xlink:href="#STSongti-SC-Black-30"/></g></g></g></g><g id="matplotlib.axis_2"><g id="ytick_1"><g id="line2d_6"><defs><path d="M0 0h-3.5" id="m11f91c9850" stroke="#000" stroke-width=".8"/></defs><use x="29.402" xlink:href="#m11f91c9850" y="60" stroke="#000" stroke-width=".8"/></g><g id="text_6"><defs><path d="M36.797 52.703q-1.39 6.594-4.75 9.484-3.344 2.907-9.14 2.907-4.204 0-7.407-2.203-3.203-2.188-3.203-6.094 0-2.39 1.047-4.094Q14.406 51 16.297 49.75q1.906-1.25 4.5-2.36L26.5 45q4.594-1.906 7.844-3.75t5.343-4.203q2.11-2.344 3.11-5.406 1-3.047 1-7.438 0-4.61-1.703-8.265-1.688-3.641-4.844-6.188-3.156-2.547-7.5-3.953-4.344-1.39-9.547-1.39-9.703 0-17.703 4.687L3.594 25h2.203Q6 21.703 7.344 18.844q1.36-2.844 3.547-5 2.203-2.14 5-3.344 2.812-1.203 6.015-1.203 2.5 0 4.844.64 2.344.657 4.094 1.907 1.75 1.25 2.797 3.094 1.062 1.859 1.062 4.265 0 3.094-1.11 5.14-1.093 2.063-3.25 3.563-2.14 1.5-5.296 2.75-3.14 1.25-7.14 2.938-4.5 1.906-7.407 4Q7.594 39.704 5.937 42q-1.64 2.297-2.296 4.844Q3 49.406 3 52.094q0 4.703 1.89 8 1.907 3.312 5 5.406 3.11 2.094 6.954 3.047 3.86.953 7.656.953 8.703 0 14.5-4.406l-.406-12.39z" id="STSongti-SC-Black-53"/><path d="M11.297 12.406v49.688q0 1.703-.547 2.406-.547.703-1.953.797l-6.297.906v2.594q1-.297 21-.297 5.906 0 9.406.297v-2.703l-6.312-.89q-1.39-.11-1.953-.704-.547-.594-.547-2.406V12.406q0-1.812.5-2.312.5-.5 2-.594l6.312-.5V5.594q-2 .203-5.75.297Q23.406 6 17.703 6 12 6 8.25 5.89 4.5 5.798 2.5 5.595V9l6.297.5q1.5.203 2 .703.5.5.5 2.203z" id="STSongti-SC-Black-49"/></defs><g transform="matrix(.1 0 0 -.1 10.69 63.6)"><use xlink:href="#STSongti-SC-Black-53"/><use x="46.3" xlink:href="#STSongti-SC-Black-49"/><use x="81.7" xlink:href="#STSongti-SC-Black-49"/></g></g></g><g id="ytick_2"><use x="29.402" xlink:href="#m11f91c9850" y="96.96" stroke="#000" stroke-width=".8" id="line2d_7"/><g id="text_7"><defs><path d="M17.406 14.094q0-2.5.594-3.344.594-.844 2.5-1.047l7.906-1v-3q-6 .297-12 .297T2.5 5.703v3l5.5 1q3.406.594 4.344 1.39.953.813.953 3v40.313q0 4.594-1 6.844T8.5 64l-5.906.906V68.5H20.64q1.453 0 2.5-.203 1.062-.203 1.859-.75.797-.547 1.906-1.64L64 26.702v32.703q0 2.688-.86 3.844-.843 1.156-2.734 1.344l-7.5 1v3.203q2.797-.297 10.797-.297 4 0 7.547.047 3.547.047 4.953.25v-3.203l-5.906-.39Q68.594 65 68.25 63.546q-.344-1.453-.344-4.14V4.702H65.5L17.406 55.906z" id="STSongti-SC-Black-4e"/></defs><g transform="matrix(.1 0 0 -.1 7.45 100.56)"><use xlink:href="#STSongti-SC-Black-4e"/><use x="78.7" xlink:href="#STSongti-SC-Black-49"/><use x="114.1" xlink:href="#STSongti-SC-Black-49"/></g></g></g><g id="ytick_3"><use x="29.402" xlink:href="#m11f91c9850" y="133.92" stroke="#000" stroke-width=".8" id="line2d_8"/><g id="text_8"><defs><path d="M56 61.797q0 2.11-.5 2.86t-1.703.937l-4.797.61v2.593q1.906-.203 5.953-.297 4.047-.094 8.344-.094t8.344.094q4.062.094 5.859.297v-2.594l-6.594-1q-1.312-.203-1.719-.906-.39-.703-.39-2.594V13.797q0-2.203.453-3 .453-.797 2.25-1.203l7.203-1.39v-2.61q-2.5.203-6.75.297-4.25.109-8.36.109h-4.156q-2.14 0-4.187-.047t-3.86-.156q-1.796-.094-3.093-.203v2.61l5.703 1q1.203.202 1.594 1.202.406 1 .406 3.39v21.407H25.094V13.797q0-2.5.406-3.453.406-.938 1.703-1.14l5.703-1v-2.61q-1.312.11-3.11.203-1.796.11-3.843.156Q23.906 6 21.703 6H17.5q-4 0-8.25-.11Q5 5.798 2.5 5.595v2.61l7.203 1.39q1.594.312 2.094 1.203.5.906.5 3v48q0 2.11-.5 2.86t-1.703.937l-4.797.61v2.593q1.906-.203 6-.297 4.11-.094 8.61-.094 4.39 0 8.484.094 4.109.094 5.906.297v-2.594l-7.094-1Q25.906 65 25.5 64.25q-.406-.75-.406-2.547V39.797H56z" id="STSongti-SC-Black-48"/></defs><g transform="matrix(.1 0 0 -.1 7.2 137.52)"><use xlink:href="#STSongti-SC-Black-48"/><use x="81.2" xlink:href="#STSongti-SC-Black-49"/><use x="116.6" xlink:href="#STSongti-SC-Black-49"/></g></g></g><g id="ytick_4"><use x="29.402" xlink:href="#m11f91c9850" y="170.88" stroke="#000" stroke-width=".8" id="line2d_9"/><g id="text_9"><defs><path d="M32.203 31L21.406 17.703q-1.703-2.11-2.062-3.61-.344-1.5.25-2.546.61-1.047 1.906-1.594 1.297-.547 3-.75l5.797-.703V5.594Q27.5 5.797 24 5.89 20.5 6 16.094 6q-4.39 0-8.25-.11Q4 5.798.5 5.595V8.5l6.406 1q2.5.5 4.64 2.203 2.157 1.703 4.86 5.203l13.5 16.594-18.61 26Q9.907 61.297 9 62.438q-.906 1.156-1.563 1.75-.64.609-1.14.812-.5.203-1.203.297L.5 66.203v2.703q2.906-.203 6.906-.312 4-.094 9.39-.094 5.407 0 9.345.094 3.953.11 5.953.312 0-.703.047-1.36.062-.64.062-1.343l-3.61-.906q-3.5-.5-3.5-2.406 0-1.891 2.11-4.797l10.703-15 11.89 15.61q1.407 1.89 1.407 3.202 0 2.094-3.5 3l-5.297 1.297v2.703q2.688-.203 6.094-.312 3.406-.094 7.594-.094 4.203 0 6.906.094 2.703.11 4.094.312v-2.703l-5.188-1q-1.703-.297-3.703-2.047-2-1.75-4.5-4.953L40 40.906l19.203-25.61q4-5.39 6.89-5.89l4.704-.906V5.594q-3.094.203-7.25.297-4.14.109-8.64.109-4.5 0-9.11-.11-4.594-.093-8.594-.296V8.5l3.594.594q1.906.312 3.094.61 1.203.296 1.656.796.453.5.094 1.453-.344.953-1.547 2.453z" id="STSongti-SC-Black-58"/></defs><g transform="matrix(.1 0 0 -.1 12.772 174.48)"><use xlink:href="#STSongti-SC-Black-58"/><use x="71.3" xlink:href="#STSongti-SC-Black-20"/></g></g></g><g id="ytick_5"><use x="29.402" xlink:href="#m11f91c9850" y="207.84" stroke="#000" stroke-width=".8" id="line2d_10"/><g transform="matrix(.1 0 0 -.1 8.19 211.44)" id="text_10"><use xlink:href="#STSongti-SC-Black-58"/><use x="71.3" xlink:href="#STSongti-SC-Black-49"/><use x="106.7" xlink:href="#STSongti-SC-Black-49"/></g></g></g><path d="M29.402 244.8V23.04" fill="none" stroke="#000" stroke-linecap="square" stroke-width=".8" id="patch_3"/><path d="M475.802 244.8V23.04" fill="none" stroke="#000" stroke-linecap="square" stroke-width=".8" id="patch_4"/><path d="M29.402 244.8h446.4" fill="none" stroke="#000" stroke-linecap="square" stroke-width=".8" id="patch_5"/><path d="M29.402 23.04h446.4" fill="none" stroke="#000" stroke-linecap="square" stroke-width=".8" id="patch_6"/><g id="text_11"><defs><path d="M47.297 81.703q8.406 0 15-2.906 6.61-2.89 6.61-8.5 0-3.5-2.25-5.703-2.25-2.188-5.954-2.188-2.5 0-4.312 1.297-1.797 1.297-1.797 5.688 0 4.406-1.797 6.859Q51 78.703 47 80.594q-.906.406-.906.75 0 .36 1.203.36zM13.907 76.5q7.39 0 12.093-2.547t4.703-7.86q0-2.796-1.86-4.546-1.843-1.75-4.452-1.75-2.594 0-4.203 1.844Q18.593 63.5 18.5 66.5q-.203 6.5-5.094 8.906-.812.39-.812.735 0 .359 1.312.359zM67.296 29V-1.203H79q1.406 2.406 3.344 5.297Q84.297 7 84.797 7.547q.5.547 1.11.547 1.39 0 7.03-5.156 5.657-5.141 5.657-6.282 0-1.156-2-1.156H34q-2 0-3.594-1.094l-2.61 4.688q2.407-.297 5-.297h21.798V29h-13q-2 0-3.594-1.094l-2.594 4.688q2.39-.297 5-.297h14.188v24.406H43.297q-2 0-3.594-1.11l-2.61 4.704q2.407-.297 5-.297h34.5q1.204 2.5 2.798 5.14 1.609 2.657 2 3.11.406.453.906.453.703 0 4.453-2.812 3.75-2.797 6-5Q95 58.703 95 57.906q0-1.203-2-1.203H68.797q-.594-1.406-1.5-2V32.297H75.5q2.203 4.5 3.39 6.25 1.204 1.75 1.907 1.75 1.11 0 6.406-4.406Q92.5 31.5 92.5 30.25t-2-1.25zM37.203 64.5l-9.11-30q-4-12.906-4-19.5 0-6.594 1.048-10.547Q26.203.5 26.203-1.297q0-3.61-2.203-5.797-2.203-2.203-5.11-2.203-2.89 0-4.687 1.703Q12.406-5.906 12.406-3q0 1.703.594 3.594 2 6.812 2 10.86 0 4.046-1.906 6.343-1.89 2.297-6.594 3.5-1.094.297-1.094.75T6.5 22.5l3.703-.094q5.703 0 8.344 3.14 2.656 3.157 5.547 9.954l12.312 29.297q.688 1.61.89 1.61.204 0 .204-.407 0-.406-.297-1.5zM6.906 54.297q5.39 0 10.735-2.203Q23 49.906 23 44.906q0-3.312-2.11-5.61Q18.798 37 15.907 37q-1.312 0-2.765 1.203-1.438 1.203-1.438 4.5Q11.703 46 10.25 49q-1.453 3-3.547 4.094-.797.5-.797.843 0 .36 1 .36z" id="STSongti-SC-Black-6ce8"/><path d="M21 48.5q3 0 5.14-2.156 2.157-2.14 2.157-5.14 0-3-2.156-5.157Q24 33.907 21 33.907t-5.156 2.14q-2.14 2.156-2.14 5.156 0 3 2.14 5.14Q18 48.5 21 48.5zM21 17q3.203 0 5.25-2.11 2.047-2.093 2.047-5.14 0-3.047-2.156-5.203Q24 2.407 21 2.407t-5.156 2.14q-2.14 2.156-2.14 5.156 0 3 2.14 5.14Q18 17 21 17z" id="STSongti-SC-Black-ff1a"/><path d="M32.5 70.297h38.594q4.906 9 6.312 9 .594 0 2.64-1.5 2.048-1.5 4.798-3.953 2.75-2.438 3.75-3.594 1-1.156 1-1.953Q89.594 67 87.5 67H29.797q-4.594-5.406-6.297-7.203 6.406-2.094 10-3.797h33.203q2.594 5.594 4.39 5.594 1.204 0 6.844-3.953 5.657-3.938 5.657-5.094 0-1.14-3.5-2.453L79.5 34h1.203q3.703 7.797 5.39 7.797 1.11 0 6.157-4t5.047-5.547q0-1.547-2.297-1.547H79.297q-.703-17.5-.797-17.906 2.594 4.297 3.5 5.344.906 1.062 1.5 1.062 1.203 0 6.047-4.11Q94.407 11 94.407 9.5T92.093 8h-13.89Q77.5-.703 75.25-4.203T68.844-9q-4.14-1.297-6.453-1.297-2.297 0-2.391 2.5-.203 6.5-10.297 8.094-1.406.203-1.406.656t1.203.453l4.203-.11q6.797 0 9.39 1.454 2.61 1.453 3.11 5.25H27.406l-1.812-2.406q-.688-1-1.438-1t-2.75.953q-2 .953-4.656 2.547-2.656 1.61-3.203 2.11-.547.5-.547.937 0 .453 1.297 1.156 1.297.703 2 2.25.703 1.547 1.344 6.64.656 5.11 1.062 9.516H8.906q-2 0-3.61-1.11l-2.593 4.704q2.39-.297 5-.297h11.39q1.11 9.5 1.813 23.094-3.703-3.688-9.203-7.938t-6.406-4.25q-.203 0-.203.094 0 .406 1.312 1.906 5.188 5.89 9.938 15.688 4.75 9.812 6.953 20.11 5.203-.704 9.797-1.86 4.61-1.14 5.703-1.703 1.11-.547 1.11-1.141 0-.703-1.157-1.156-1.156-.438-1.86-1.094-.687-.656-4.39-5.453zM30.297 34h37.297l.5 18.703H32.906q-.312-.5-.515-1.25-.188-.75-.891-6.703-.703-5.953-1.203-10.75zm9.906 16.5q6.797 0 13.14-2 6.36-2 6.36-7.297 0-2.906-1.906-4.86-1.89-1.937-3.953-1.937-2.047 0-3.547 1.25T48 39.296q-.797 2.407-3.25 5.345-2.453 2.953-4.25 4-1.797 1.062-1.797 1.453 0 .406 1.5.406zM67.5 30.703H29.906L28 11.297h38.5q.5 7.203 1 19.406zM38 29.093q6.797 0 13.14-2 6.36-2 6.36-7.296 0-2.89-1.906-4.844Q53.704 13 51.64 13q-2.047 0-3.547 1.25t-2.297 3.64q-.797 2.407-3.25 5.36-2.453 2.953-4.25 4-1.797 1.047-1.797 1.438 0 .406 1.5.406z" id="STSongti-SC-Black-6bcf"/><path d="M29.297 82.594Q34.703 80 38.64 77.64q3.953-2.344 4.547-3 .609-.641.609-1.235 0-1-1.594-1.312-3-.39-7.11-3.797-5.687-4.703-16.046-10.36-10.344-5.64-11.844-5.64-.406 0-.406.39 0 .407 1.297 1.61 9.11 8.297 13.453 14.453 4.36 6.156 7.75 13.844zm45.5-11.688q2 3.797 3.594 5.985 1.609 2.203 2.312 2.203 1.094 0 6.688-4.75Q93 69.594 93 68.594t-2-1H54.906q-2 0-3.61-1.094l-2.593 4.703q2.39-.297 5-.297zM20.5 31.296q-4.906-3.5-9.656-6.358-4.75-2.844-5.25-3.094t-.75-.25q-.25 0-.25.343 0 .36 1 1.47Q16 35 21.25 43.25t9.547 18.656q3.203-1.203 8.547-4.703 5.36-3.5 5.656-3.86.297-.343.297-.952 0-.594-1.5-1.094-3.703-1.094-4.953-2.906-1.25-1.797-6.64-7.297Q35 40.204 35 39.25q0-.953-2.094-1.953V-6.797q0-.906-.5-1.453t-4.953-1.594Q23-10.906 20.797-10.906q-.703 0-.703 1L20.406-.5q.094 4.406.094 8.297zm46.094 12h-21q-2 0-3.594-1.093l-2.594 4.703q2.39-.312 5-.312h36.797q3.203 5.203 4.203 6.547 1 1.359 1.688 1.359 1.312 0 6.75-4.5 5.453-4.5 5.453-5.61 0-1.093-2-1.093H81.203q-.11-.89-1-2.094v-41q0-4.906-1.11-7.203Q78-9.297 73.892-10.39q-4.094-1.11-11.188-1.11-1.5 0-2.562.86-1.047.843-1.047 2.046 0 3.5-1.907 5.156-1.89 1.641-6.28 2.532-1.11.203-1.11.703 0 .5 2.797.5 7.312 0 10.656.844 3.344.859 3.344 3.062z" id="STSongti-SC-Black-884c"/><path d="M54.594 42.797q-.797-.39-3.703-3.297-2.891-2.906-3.188-2.906-.297 0-.297.343 0 .36.594 1.47 8.703 15.89 10.594 43.89Q64.406 81 69.344 79.39q4.953-1.594 5.703-2.141.75-.547.75-1.297 0-.75-1.953-1.25-1.938-.5-2.844-2.61l-5.594-12.296h14.688q2.812 6 4.5 6 1.11 0 4.797-2.406Q93.094 61 95.5 59.203q2.406-1.797 2.406-3.156 0-1.344-4.406-2.453-.094-14.89-.75-31.14T91.047 1.546Q90-3.093 87.203-5.547 84.406-8 80-8.64q-4.406-.656-6.36-.656-1.937 0-2.546.547-.594.547-.844 3.156Q70-3 67.594-1q-2.39 2-7.297 3.203-1.89.5-1.89.844 0 .36 1.5.36L67 3.296q6.094 0 8.688.89 2.609.907 3.562 3.704.953 2.812 1.64 17.062.704 14.25.704 31.547h-17.89Q59.5 49 54.796 43.594q9.11-2.5 13.703-5.907 4.594-3.39 4.594-7.593 0-4.188-2.047-6.5-2.047-2.297-5.25-2.297t-4.203 1.344q-1 1.359-1 5.953 0 10.703-6 14.203zM21.297 59.5q.61 6.094.61 11.25T21.5 81.5q5.094-.5 9.938-1.297 4.859-.797 6.062-1.297 1.203-.5 1.203-1.156 0-.656-1.703-1.406-1.703-.75-3.656-3.75-1.938-3-6.938-13.094H35q1.297 2.797 2.297 4.094 1 1.312 2.047 1.312 1.062 0 6.203-3.312 5.156-3.297 5.156-4.657 0-1.343-3.703-2.234V12q0-4.703.094-6.594L47.204 2q0-1.297-.86-1.906Q45.5-.5 43.14-1.296q-2.344-.798-5.438-.798Q36-2.094 36 .203V5H20.094v-6q0-1.094-.703-1.75-.688-.656-3.188-1.25T11.5-4.594q-2.203 0-2.453.297t-.25 1.094L9 1.5q.203 4.906.203 8.906v42.39q0 6.11-.203 10.407 5.5-1.297 11.703-3.703zm-1.203-23.594H36v20.297H22.094q-.39-2.203-2-2.906zM36 32.594H20.094V8.297H36z" id="STSongti-SC-Black-7684"/><path d="M45.797 39.094Q55.297 44.297 61 49.5q-6.406 8.5-9.797 21.094-2.11 0-3.797-1.094l-2.61 4.703q2.407-.297 5-.297h23.907q1.797 3.5 2.547 4.438.75.953 1.594.953.86 0 4.86-2.36 4-2.343 6.39-3.937 2.406-1.594 2.406-2.797t-1.953-1.406q-1.953-.203-2.86-1.11-.89-.89-2.687-4.484Q80.594 56.5 74.297 51q8.5-4.406 21.703-6.797 2.5-.406 2.5-.766 0-.343-2.5-1.296-2.5-.938-4.61-2.938-2.093-2-4.187-6.297Q86.5 31.5 85.5 31.5q-1.594 0-8.797 4.453t-11.5 8.844Q59 41.297 49.5 38.5q4.094-1 6.25-3.047 2.156-2.047 2.156-4.453 0-4-3.703-6.094h17q2.89 5 3.984 6.594 1.11 1.594 1.907 1.594 1.5 0 7.594-4.594 6.109-4.594 6.109-5.75 0-1.156-2.203-1.156H64.406q8.797-2.297 10.438-3.047 1.656-.75 1.656-1.797t-1.61-1.406q-1.593-.344-4.25-3.797Q68 8.094 59.798-4.5H77q3.5 5.703 4.703 7.14 1.203 1.454 1.89 1.454 1.11 0 7.36-4.844t6.25-5.938q0-1.109-2.297-1.109h-84.5q-2 0-3.61-1.11L4.204-4.202q2.39-.297 5-.297h46.094q2.906 12.094 4.297 26.094h-42.5q-2 0-3.594-1.094l-2.594 4.703q2.39-.297 5-.297h30.39q-.702.594-1.046 1.547-.344.953-.344 2.047l.094 2q0 5-3.203 6.797.203-2.203.203-3.203t-.25-1.297q-.25-.297-2.11-1-1.843-.703-4.5-1.25Q32.5 30 31.095 30q-.688 0-.688 1.5l.188 3.906q.11 4 .11 9v26.5q0 5-.204 8.89 8.703-.593 11.25-1.405 2.547-.797 2.547-1.797 0-1.188-2.594-2.39v-30q0-3.704.094-5 2.906 0 4-.11zm21 16.61q5.297 6.796 7.297 14.89H53.906q6-9.5 12.89-14.89zM11.594 74.405q8.812-.61 10.906-1.312 2.094-.688 2.094-1.797 0-1.094-2.188-1.89v-31.5q0-.907-.312-1.266-.297-.344-1.953-1Q18.5 35 15.953 34.594q-2.547-.39-3.953-.39-.594 0-.594.796l.188 4.703q.203 4.797.203 8.703V65.5q0 5-.203 8.906zm11.812-54.812q1.297 0 5.594-1.047 4.297-1.047 7.344-3.094 3.062-2.047 4.562-4.797 1.5-2.75 1.5-5.812 0-3.047-2.25-5.438Q37.906-3 34.906-3t-4.75 1.75Q28.406.5 28.75 2.953q.344 2.453.344 4.344 0 7.11-5.094 10.797-1.297.906-1.297 1.203 0 .297.703.297z" id="STSongti-SC-Black-7ad6"/><path d="M64.203 78.203q1.5.094 3 .094 7 0 11.188-2.156Q82.594 74 82.594 70.5q0-2.094-1.5-4.094 4.5-2.5 6.953-4.36 2.453-1.843 2.453-3.25 0-1.39-2.906-2L62.5 51.907q.406-7.312.797-10.812l14 3.11q1.406 3.796 2.5 6.39 1.11 2.61 1.547 3.156.453.547.953.547 1.203 0 5.344-2.547 4.156-2.547 6.046-3.906 1.907-1.344 1.907-2.703 0-1.344-2.39-1.844l-29.407-6.094q1.5-9.61 4-15.797 6.703 8 9.5 16.797 6.906-2.703 10.594-4.406 3.703-1.703 4.156-2.11.453-.39.453-.78 0-.907-2.156-1.516-2.14-.594-4.547-3.594-6.5-8.203-12.594-13.39 2.203-2.5 5.344-4.407 3.156-1.906 4.5-1.906 1.36 0 2.25.593.906.61 2.656 4.157 1.75 3.562 3.344 7.36Q92.907 22 93.344 22q.453 0 .453-.703t-.203-1.5q-1.797-6.89-1.797-12.14 0-5.25 3.797-10.25.906-1.313.906-3 0-1.704-1.797-3.048Q92.906-10 89.593-10 83.798-10 76.5-6T63.594 5.5q-8.5-5.203-22.157-9.203-13.64-4-15.437-4-1 0-1 .61 0 .593 2.094 1.39 19.61 7.906 32.11 18.406Q55.296 21 53 34.906l-10.906-2.203q-1.797-.11-3.5-1.61L35.5 35.907q1.203-.11 2.39-.11 1.204 0 2.61.298l11.906 2.61q-.906 6.093-1.406 11L45 48.5q-2-.297-3.5-1.594l-1.797 2.797q-9.797-11.906-19.906-23l23.297.797q2.312 0 2.312-.656 0-.64-2.61-1.344-12-3.406-18.25-5.656-6.25-2.25-12.452-5.344-.89-.5-1.594-.5-.703 0-.953.344-.25.36-2 5.86t-1.75 6.687q0 1.203 2 1.312 3.203.094 6.094 1.594 2.906 1.5 4.796 4.5 1.907 3 5.907 10.703-8.688-2.797-14.5-6.5-.89-.594-1.5-.594-.594 0-.953.547Q7.297 39 5.437 44q-1.843 5-1.843 6 0 1.594 1.703 1.797 1.703.203 3.156 1 1.453.797 2.25 1.89.797 1.11 2.75 6.407 1.953 5.312 3.094 9.75Q17.703 75.297 18.703 81q5.89-2.203 10.64-4.36 4.75-2.14 5.25-2.593.5-.453.5-.953 0-1-2.093-1.39-.906-.204-1.906-1.11-1-.89-6.75-8.094-5.75-7.203-10.64-13.094l12.89-.11q3.61 7.907 6 14.798Q36 62.594 41 60q5-2.594 5.5-3.156.5-.547.5-1.047 0-1-1.453-1.406Q44.094 54 41.5 51.594l9.203 1.703-2 29.11q4.39-.204 9.344-.907 4.953-.703 5.844-1.11.906-.39.906-.937t-.594-1.25zM75.093 63q-3.39.906-4.296 3.703-1.594 5-3.203 6.797-1.594 1.797-4.797 3.297-.203-.094-.594-.5-.11-4.203-.11-9.25t.204-11.453l10.906 2.11q1 3 1.89 5.296zM4 7q11.906 1.094 23.094 3.297l17.312 3.297q.89 0 .89-.547T44.204 12Q19.703.297 10.5-5.703q-.906-.5-1.313-.5-.39 0-.64.312-.25.297-1.797 4.297Q5.203 2.406 4 7z" id="STSongti-SC-Black-7ebf"/><path d="M49.094 44.5l-11.89-1q-1.907-.203-3.5-1.406l-3 4.406q2.593 0 5 .203l13.093 1.094-1 18.203q-.5 9.797-1.203 16 5.5 0 10.797-.61 5.312-.593 6.312-1.203 1-.593 1-1.28 0-1.5-3.203-2.813-.703-9.594-.703-16.14 0-6.548.297-11.157l18 1.5 3.61 6.797q.702 1.312 1.593 1.312.906 0 7.156-4.062 6.25-4.047 6.25-4.953 0-.891-1.297-.985l-35-2.906q1.688-19.297 10.64-29.75Q81 5.297 84.407 5.297q1.688 0 3.188 3.203 1.5 3.203 4 11 .703 2 1.094 2 .406 0 .406-.797t-.344-3.25q-.344-2.453-.344-5.547 0-8.11 4.797-14.5Q98-3.594 98-5.5q0-1.906-2.047-3.594-2.047-1.703-5.547-1.703-6.61 0-16.406 6.047-9.797 6.047-16.25 17.938-6.453 11.906-8.656 31.312zm-31.797-2.906q-4-5-8.703-9.75-4.688-4.75-5.39-5.25-.704-.5-1.204-.5t-.5.593q0 .61.703 1.516 7.094 9.39 12.735 24.047Q20.593 66.906 22.405 82q6-1.406 11.844-3.61 5.844-2.187 5.844-3.687 0-.906-1.657-1.266-1.64-.343-3.593-3.296-1.938-2.938-3.844-6.844-1.906-3.89-4.406-8.094 5.812-1.11 5.812-2.516 0-1.39-3-2.39V-4.797q0-1-.25-1.344-.25-.359-1.86-1.062-1.593-.703-4.155-1.14-2.547-.454-5.047-.454-1.188 0-1.188 1.594l.297 9.406q.094 4.39.094 8.297zM65.407 75.5q8.187 0 12.39-1.703 4.203-1.703 5.75-4.547 1.547-2.844 1.547-4.953 0-2.094-2.344-4.297t-4.906-2.203q-2.547 0-4.25 1.203-1.688 1.203-1.797 3.094Q71.5 66 69.25 69.297T63.703 74q-.906.297-.906.75t.453.594q.453.156 2.156.156z" id="STSongti-SC-Black-4ee3"/><path d="M43.797 64.703h-27q-2 0-3.594-1.11l-2.61 4.704Q13 68 15.594 68h28.204v6q0 5-.203 8.906Q52 82.094 55.25 81.437q3.25-.64 3.25-1.75 0-1.093-2-2.187V68h17.406q.797 1.406 2.797 4.594 2 3.203 2.39 3.547.407.359.813.359 1.39 0 7.64-4.703t6.25-5.906q0-1.188-2-1.188H56.5v-11.11h13.906q2.594 4.5 3.688 6.204 1.11 1.703 1.812 1.703 1.188 0 6.985-4.36 5.812-4.343 5.812-5.593t-2-1.25H56.5v-11.39h20.906Q81.5 46 82.046 46.702q.548.703 1.25.703 1.204 0 7.548-4.703 6.36-4.703 6.36-5.906 0-1.203-2.11-1.203h-16q3.312-1.39 7.062-3.594 3.75-2.203 4.297-2.906.547-.688.547-1.297 0-1.594-3.11-1.703-3.093-.094-6.593-1.453-3.5-1.344-13.39-6.844 10.39-10.703 29.89-14 1.61-.297 1.61-.656 0-.344-1.5-1.047-6.704-2.89-10.313-10.39-.5-1.11-2.203-1.11-1.688 0-9.844 5.703-8.14 5.703-13.14 12.5-.204-.203-.813-.594Q41.797-5 35.797-10.5q-.703-.594-1.36-.594-.64 0-1.14.89-2.703 5.907-6.203 10.61-.39.594-.39 1.188 0 1.203 1 1.312 4.202.688 4.202 4.797v8.203q-8.5-5.61-17.5-9.062-9-3.438-10.61-3.438-.593 0-.593.344t1.094 1.047q13.203 8 19.156 13.75 5.953 5.75 12.344 17.047H12.703q-2 0-3.61-1.094L6.5 39.203q2.406-.297 5-.297h32.297v11.39H21.594q-2 0-3.594-1.093l-2.594 4.703q2.39-.312 5-.312h23.39zm31.906-29.11H56.797q3.5-9.187 9.297-15.89 6.5 9 9.61 15.89zm-22.203-.5q-.797-.796-2.5-1.5-3.203-3.796-4.906-5.687.11-1.11-2.094-2.11l-.594-.593V4.906l8.188 2.297q9.5 2.594 10.11 2.594-7 10.11-8.204 25.297z" id="STSongti-SC-Black-8868"/><path d="M56.703 81.094q8.39 0 11.438-3.156 3.062-3.141 3.062-6.141T68.641 66.5q-2.547-2.297-5.344-2.297T58.89 65.75q-1.594 1.547-2.047 4.844-.438 3.312-2.188 5.61-1.75 2.296-5.453 3.296-1.297.406-1.297.75t2.844.594q2.844.25 5.953.25zM10.297 77.5q8.406 0 14.5-3 6.11-3 6.11-8.203 0-3-2.563-5.547-2.547-2.547-5.844-2.547-2.203 0-4.063 1.75-1.843 1.75-1.843 4.14 0 5-1.344 7.594-1.344 2.61-4.953 4.313Q9 76.594 9 77.047q0 .453 1.297.453zm39.906-17.297H39q-2 0-3.594-1.11l-2.61 4.813q2.407-.312 5-.312h41.907q4.203 7.812 6.39 7.812.704 0 2.204-1.062 1.5-1.047 4.75-3.797T97 62.844q.703-.938.703-1.547 0-1.094-1.797-1.094h-36q6.39-2 6.39-3.406 0-.89-2.109-1.297-2.093-.406-4.75-2.813-2.64-2.39-14.234-11.593l17.094.406q2.906 5.906 5 12.297Q81.5 47.594 81.5 45.203q0-1-1.75-1.203-1.75-.203-3.156-1.406-1.39-1.188-4.094-5-11-15.297-23.297-22.094-12.297-6.797-14.5-6.797-.406 0-.406.344 0 .36.61.86 17.39 12.5 25.296 27.39Q43.406 31.907 40 30.203q-.5-.297-.953-.297-.453 0-.86.75-.39.75-2.187 5.5-1.797 4.75-1.797 5.25 0 1 1.094 1 2.703.094 4.547 1.688 1.86 1.61 5.36 6.906 3.5 5.297 5 9.203zM27.5 13.593q5.406 3.11 10.906 7.204.688.5 1.188.5t.5-.547q0-.547-.688-1.344Q35.5 14.5 29.796 6.094q-5.702-8.39-8-12.594-.5-1-1.25-1t-1.202.453q-.438.453-3.188 4.547-2.75 4.094-3.61 5.547Q11.704 4.5 11.704 5t.39.906q2 1.688 2.75 3.14.75 1.454.75 3.36v32.797h-6q-2 0-3.593-1.11l-2.594 4.704q2.39-.297 5-.297h6.688q1.203 2.297 2.094 3.438.906 1.156 2.156 1.156t5.406-2.203Q28.906 48.703 30 48q1.094-.703 1.094-1.5 0-1.203-3.594-2.797zm43.406-2.89q-6.812-6.5-14.719-11.297-7.89-4.812-17.296-7.812-9.391-3-13.188-3-.703 0-.703.406t.906.703q17.297 6.094 30.735 18.89 13.453 12.813 21.359 31 3.906-2.093 7.594-4.39 3.703-2.297 4.547-3.156Q91 31.203 91 30.5q0-1.203-2.203-1.406-1.203-.094-2.36-1.14-1.14-1.048-4.687-5.548-3.547-4.5-8.844-9.812Q85.094 9.5 88.75 6.204q3.656-3.298 3.656-8.11 0-3.297-2.453-5.64-2.453-2.36-5.656-2.36-1.594 0-2.953 1.36Q80-7.204 79.594-5.095q-2 10.188-8.688 15.797z" id="STSongti-SC-Black-8be5"/><path d="M66.406 41.5q-1.61-14.094-5.062-22.453-3.438-8.344-9.844-14.594-6.406-6.25-16.36-10.64-9.937-4.407-12.937-4.407-.797 0-.797.5t2 1.5q14.188 7.188 21.438 16.64 7.25 9.454 9.047 25.75 1.812 16.298 1.406 47.407 7.297-.406 11.594-.953 4.312-.547 5.062-1.047.75-.5.75-1.406 0-.89-1.703-1.703-.5-.188-1.297-1.188Q69 66.703 69 59.594q0-21.39 6.297-35.047Q81.594 10.907 96 2.703q1-.5 1-.906 0-.39-2.61-1.047-2.593-.656-5.64-3.094-3.047-2.453-4.547-5.562-.5-1-1.406-1-2.203 0-9.297 11.656-7.094 11.656-7.094 38.75zM20.594 75h10.61q1.702 3.297 2.14 3.89.453.61 1.453.61t4.594-2.25q3.609-2.25 6.203-4 2.61-1.75 2.61-3.156 0-1.39-1.75-1.797-1.75-.39-2.75-1.25-1-.844-4.75-6.594t-8.048-13.047q8-3 11.64-7.312 3.657-4.297 3.657-11.797 0-7.5-4.75-11.703-4.75-4.188-8.75-4.188-2.906 0-3.36 2.938-.437 2.953-2.296 4.5-1.844 1.562-5.844 2.656V-6.203q0-1.203-.656-1.64-.64-.454-4.594-1.25-3.953-.813-5.36-.813-1.39 0-1.593.203-.203.203-.203.906L9-4.907q.094 4.5.094 9.5v63.813q0 7.188-.39 10.5 6.093-1.61 11.89-3.906zm.61-51q1.702-.094 3.093-.094 5.406 0 7.953 1.844 2.547 1.844 2.547 5.797 0 3.953-2.36 8-2.343 4.047-6.53 7.25Q30 59.703 31.702 71.703h-8.61q-.593-1.11-1.89-1.406z" id="STSongti-SC-Black-961f"/><path d="M66.297 78.703q7.906-.5 12.75-3.406 4.86-2.89 4.86-6.094 0-3.203-2.063-5.312-2.047-2.094-5.25-2.094-1.39 0-2.89.797-1.5.812-1.5 3.75 0 2.953-1.954 5.797-1.953 2.859-5.656 5.062-.188-10.406.11-17.5h15.202q2.89 4.5 4.344 6.39Q85.703 68 86.297 68q.61 0 2.25-1.297 1.656-1.297 4.594-4 2.953-2.703 3.796-3.61.86-.89.86-1.796 0-.89-2-.89h-31q.906-18.5 4.61-29.907 6.5 11.406 8.296 24.094 5.89-2.094 9.734-3.844 3.86-1.75 4.75-2.406.907-.64.907-1.39 0-.75-1.547-1.407-1.547-.64-2.406-1.844-.844-1.203-2.641-4.906-5.094-10.594-12.406-19.094 2.812-4.5 6.453-7.812 3.656-3.297 5.406-3.297 1.75 0 3.89 3.703Q92 12 93.344 15.453q1.36 3.453 1.75 3.453.407 0 .407-.703t-.203-1.5Q94 10.906 94 6.156 94 1.406 97.203-3q1.39-1.906 1.39-3.703T97-9.641q-1.594-1.156-4.297-1.156-6 0-13.953 5.156Q70.797-.5 65.703 7.406 55.5-1 44.047-5.797q-11.453-4.797-13.953-4.797-.688 0-.688.39 0 .704 2.5 2.11 18.5 10.39 29.594 23.39-3.594 7.798-5.406 17.048-1.797 9.25-2.89 24.062h-27.11q-.688-1.703-.688-4.203L25 42.593h11.5q2.594 4.907 3.688 4.907 1.109 0 4.109-2.203l5.61-4Q52.5 39.5 52.5 38.453t-3.703-2.25q.297-4.203.297-9.25t-.5-10.656q-.5-5.594-1.157-7.453-.64-1.844-2.39-3.594Q43.297 3.5 39.844 2 36.406.5 34.344.5q-2.047 0-2.047 1.906-.094 4.797-10.797 8.188Q19.5 3.797 12-3.5t-8.594-7.297q-.11 0-.11.203 0 .5 1.407 2.297 5.203 6.203 7.25 16.844Q14 19.203 14 36.094 14 53 13.297 65.5q7.11-2.594 13.61-5.797H53L51.797 83.5q5.5-.406 9.844-1.156 4.359-.75 5.062-1.094.703-.344.703-1t-1.11-1.547zm-41.39-39.406l-.61-9.89Q23.5 17.702 22 12.593q2.5-.188 4.406-.188 8.297 0 10.047 3.5t1.75 12.594q0 4.703-.61 10.797z" id="STSongti-SC-Black-6210"/><path d="M35 55.797q0-1.5-.5-2.36-.5-.843-3-1.343t-5.203-.5q-2.703 0-3.156.5-.438.5-.344 1.203.297 3.297.297 5.406v14.594q0 4.11-.188 8.297 8.094-2.39 13.5-4.89h28q2.797 4.5 3.438 5.093.656.61 2.047.61 1.406 0 6.656-3.313 5.25-3.297 5.25-4.5 0-1.188-2.797-2.094v-11l.094-4.5q0-.906-.453-1.453-.438-.547-2.797-1.344-2.344-.797-5.453-.797-3.094 0-3.704.547-.593.547-.593 1.844zm0 3.297h31.094v14.312h-29.89Q35.796 73 35 72.703zm-2.703-12.39H69.5q2.203 3.702 2.75 4.14.547.453 1.5.453t5.047-2.156q4.11-2.141 6.25-3.641 2.156-1.5 2.156-2.094 0-1.11-3.203-2.203V24.406q0-4.61.094-6.406l.11-3.297q0-1.703-3.11-2.656-3.094-.953-6.797-.953-2.297 0-2.797.5T71 14v29.406H32q-.406-1-1.594-1.312V14q0-2.094-3.86-2.906-3.843-.797-7.343-.797-1.703 0-1.406 1.61.406 2.187.406 5.39v24.906q0 4.094-.203 8.297 9.594-2 14.297-3.703zm20.406-35.798q-4-7.11-11.953-11.656-7.953-4.547-20.313-7.188-12.343-2.656-15.234-2.656-.61 0-.61.344t1.204.75q16 5.406 24 10.703t11.594 12.75Q45 21.406 45 34.797q0 2.406-.094 5.11 13.688-1.407 15.39-2.11Q62 37.094 62 36.297t-1.703-1.344q-1.703-.547-2.297-5.656-1.297-11.203-4.906-17.703 14.61-1.5 23-4.156 8.406-2.641 11.453-5.25 3.047-2.594 3.047-6.438t-2.406-5.797Q85.796-12 83.25-12q-2.547 0-4.344 3.406-2.5 4.89-9.953 10.594-7.453 5.703-16.25 8.906z" id="STSongti-SC-Black-5458"/><path d="M63.906 71.406q0-3.5 2.938-9.906 2.953-6.406 7.75-11.156 4.812-4.75 10.562-7.907 5.75-3.14 12.75-5.234 1.188-.406 1.188-.953 0-.547-1.297-.844-7.703-1.5-12.297-9.203-.797-1.5-1.703-1.5-1.703 0-8.297 6.75t-11 17.188Q60.094 59.094 58.797 74l-.594 6q0 1 .64 1 .657 0 5.298-1.203 4.656-1.203 5.359-2 .703-.797.703-1.5 0-1.89-2.703-2.297-3.594-.5-3.594-2.594zm-32.5 6.39q5.89-1.796 10.735-3.593Q47 72.406 48.094 71.75q1.11-.656 1.11-1.5t-1.407-1.203q-1.39-.344-2.14-1.094-.75-.75-2.157-3.047-7.594-13-15-21T12.89 30.953Q4.704 26 3.407 26q-.312 0-.312.203 0 .39 1.203 1.39 13 11.11 18.75 22.86t8.36 27.344zM68.203 2.704l-35.61-7.797q-8.5-1.812-9.952-2.406-1.438-.594-2-.594-.547 0-.953.75-.391.75-2.188 6.75-1.797 6-1.797 6.89 0 .907 1.703.907 2.797.094 4.64.547 1.86.453 3.298 1.75 1.453 1.297 6.203 9.797t7.203 15.047q2.453 6.562 3.75 12.86 7.594-2 11.938-3.407 4.359-1.39 5.109-1.89t.75-1.204q0-1.11-2.094-1.703-1.61-.406-3.203-3.094-6.797-11.203-25.203-29.5l37.406.5q-2.5 7.297-9.797 13.89-1.61 1.407-1.61 1.75 0 .36.407.36 1.094 0 7.547-2.953 6.453-2.953 10.89-6.36 4.454-3.39 6.657-7Q83.5 3 83.5-.64q0-3.656-2.406-6.203-2.39-2.562-5.844-2.562-3.453 0-4.953 1.656-1.5 1.656-1.547 4.656-.047 3-.547 5.797z" id="STSongti-SC-Black-516c"/><path d="M80.094 67.297l3.11 4.11q1.093 1.39 1.843 1.39t3.25-1.703q2.5-1.688 5.594-4.14 3.109-2.454 4.062-3.5.953-1.048.953-1.954 0-1.906-3.203-1.594-2.297.188-4 .188-5.5 0-8.703-2.688 2.906-2.406 4.156-3.562 1.25-1.14 1.25-2.047 0-.89-2.406-.89H69.297q-.5-.5-1.797-1v-7.313h7q2.5 3.906 3.14 4.703.657.797 1.266.797 1 0 7.047-3.657Q92 40.797 92 39.344q0-1.438-3.594-2.438V22.203l.297-9.61q0-.796-.453-1.343-.453-.547-2.86-1.61Q83 8.595 78.095 8q8-1.797 12.047-4.953 4.062-3.14 4.062-6.953 0-2.797-1.953-4.89-1.953-2.11-4.453-2.11t-3.5.656q-1 .656-2.39 3.156-3.61 6.797-7.016 9.797-3.391 3-7.391 4.688-4 1.703-4 2 0 .312.797.312 4.906 0 12.297-1.406-.297.406-.297 2v1h-27.89V10q0-.703-.36-1.11-.344-.39-2.094-1.093t-4.11-1.156q-2.343-.438-3.937-.438-.812 0-.812.797l.203 4.594q.203 3.203.203 5.703V37q0 4.5-.297 9 7.203-2 10.203-3.406H56.5v8.312h-8.203q-2 0-3.703-1.11l-1.39 2.5q-2.11-1.5-4.61-1.5-2.5 0-4.203 1.704-1.688 1.703-1.688 3.797 0 2.11 1.39 3.203 3.313 2.594 4.407 4.39 1.094 1.813 1.094 3.75 0 1.954-.203 3.297-.188 1.36-.188 1.75 0 .407.203.407.5 0 2.344-1.953 1.844-1.938 2.844-3.844h15.703Q57.5 68.203 57.5 71.5l.203 2.406q0 2.5-1.156 4.297-1.14 1.797-2.953 3.047-1.797 1.25-1.797 1.547 0 .297 3.797.297 15.11 0 15.11-8.094 0-2.906-1.704-5-1.703-2.094-4.906-2.703zm2.11-3.39H46q.594-2 .594-4.61 0-2.594-1.5-5H72.5q2.094 3.61 3.14 5.047 1.063 1.453 1.704 1.453.656 0 2-.86 1.36-.843 1.656-1.03.5 1.89 1.203 5zm-5.907-34.704v9.89H67.5v-9.89zm-19.797 0v9.89H50q-.406-.687-1.594-1.093v-8.797zm19.797-14.5v11H67.5v-11zm-19.797 0v11h-8.094v-11zM11.203 78.5q2.594 0 7.64-1.297 5.063-1.297 7.5-3.656 2.454-2.344 2.454-5.547t-1.953-5.25q-1.938-2.047-4.64-2.047-2.704 0-4.11 1.344-1.39 1.36-1.5 3.36-.188 4.796-1.297 7.234-1.094 2.453-2.953 3.859-1.844 1.406-1.844 1.703 0 .297.703.297zM33 69.203l-8.797-40.797q-1.61-7.203-1.61-11.906t2.61-12.906q.703-2.297.703-4.39 0-3.61-2.156-5.86-2.156-2.25-5.75-2.25-6.797 0-6.797 7.11 0 2 1 6.25t1 7.937q0 3.703-1.75 6.046-1.75 2.36-5.953 3.766-1.297.39-1.297.797 0 .406 1.25.25 1.25-.156 2.25-.156 3.703 0 6.344 1.843 2.656 1.86 4.36 6.657l13.687 37.703q.61 1.703.86 1.703t.25-.5q0-.5-.204-1.297zM5 55.5q7.203 0 11.344-2.703 4.156-2.703 4.156-7 0-2.5-2.156-4.75-2.14-2.25-4.594-2.25-2.453 0-3.656 1.203-1.188 1.203-1.188 3.094 0 4.703-1.062 6.843-1.047 2.157-3.64 4.266-.704.594-.704.938 0 .359 1.5.359zM51.5 9.906q4.5-2.11 8.547-4.515Q64.094 3 64.687 2.453q.61-.547.61-1.047 0-.812-2.11-.906-2.093-.094-3.546-.594-1.438-.5-3.938-1.703-10.11-4.703-19.062-7-8.938-2.297-10.141-2.297-.297 0-.297.094 0 .203 2.203 1.297Q43.094-2.406 51.5 9.907z" id="STSongti-SC-Black-6f14"/><path d="M19.297 48.297H8.407q-2 0-3.61-1.094l-2.594 4.703q2.39-.312 5-.312h12.094v19.203q0 5-.203 8.906 7.312-.297 10.953-.86 3.656-.546 3.656-1.656 0-1.093-3.11-2.78V51.593h4.11q3.39 6.906 4.89 6.906 1.11 0 5.157-3.453t4.047-4.953L74.5 69.797H49.703q-2 0-3.703-.703l-2.5 4.5q2.703-.5 5-.5h27.203q.797 1.406 2.094 3.11 1.297 1.702 1.797 1.952t1.156.25q.656 0 1.453-.406t4.39-2.75q3.61-2.344 5-3.547Q93 70.5 93.5 69.75t.5-1.344q0-2.312-6-1.906L56.094 43.406h23.312q1.297 3.39 2.188 4.594.906 1.203 2 1.203 1.11 0 5.25-2.61Q93 44 94.75 42.704q1.75-1.297 1.75-2.547 0-1.25-2.11-1.61-2.093-.343-2.296-4.14-.797-12.703-1.844-22.765-1.047-10.047-1.906-12.985-.844-2.953-2.75-4.843-1.89-1.907-5.25-2.954Q77-10.203 74.39-10.203q-2.594 0-2.891 1.797-.703 3.906-2.656 5.86Q66.906-.595 64 .25q-2.906.844-2.906 1.14 0 .313 1.61.313l5-.11q3.796 0 5.593.548 1.797.562 2.547 1.953.75 1.406 1.406 5.297.656 3.906 1.453 12.312l1.797 18.39h-1q-.406-.593-1.203-1.187-1.703-11.5-5.61-19.75-3.89-8.25-10.687-14.11Q55.203-.796 44.094-4.89 33-9 28.594-9q-1 0-1 .797t1.61 1.297Q64.5 5.5 66.5 40.094h-1.703q-.39-1-1.39-1.688-4.313-14.203-10.47-21.61-6.14-7.39-15.187-12Q28.703.204 27.297.204q-.703 0-.703.64 0 .657 1.406 1.454 20.703 12.406 23.5 37.5L48.906 37.5q-.5-.406-1-.406-.906 0-4.453 3.156t-3.547 3.906q0 .75.89 1.047 2.907 1 5.798 3.094h-16v-24.39q7.203 1.5 11.093 2.39 3.907.906 4.563.906.656 0 .656-.5t-.61-1.062q-.593-.547-5.89-3.547l-10.312-5.89Q15 7.703 13.14 6.343 11.297 5 10.89 5q-.391 0-.797.5-.39.5-2.297 5-1.89 4.5-3.297 9 6.797.797 14.797 2.297z" id="STSongti-SC-Black-573a"/><path d="M52.797 59.094q-7-12.89-14.297-20.703-7.297-7.797-8.297-7.797-.203 0-.203.203 0 .5 1 2.11 6 9.796 10 22.984 4 13.203 4.906 26.812Q53 81 58.141 79.391q5.156-1.594 5.859-2.094.703-.5.703-1.203 0-1.188-1.812-1.5-1.797-.297-2.75-1.344-.938-1.047-2.391-4.297t-3.25-6.547h21q1.406 2.89 2.797 4.844 1.406 1.953 2.297 1.953 1.5 0 8.453-5.453Q96 58.297 96 56.25q0-2.047-3-2.047l-3.594.094q-4.61 0-7.562-1.953-2.938-1.938-6.547-6.547-1-1.297-1.453-1.297-.438 0-.438.547t.188 1.36q2.11 6.687 3.11 12.687zm-42 14.11q18.61 0 18.61-11.298 0-3.11-2.407-5.562-2.406-2.438-5.11-2.438-2.687 0-4.093 1.5-1.39 1.5-1.64 5.094-.25 3.594-2.063 6.594-1.797 3-5.5 4.906-1.094.594-1.094.89 0 .313 3.297.313zM37.907 66l-12-32.406q-2.313-6.188-2.313-11.438 0-5.25 1.703-14.453.406-2.203.406-4Q25.703-5 17-5q-3.406 0-5.25 1.86-1.844 1.843-1.844 4.53 0 2.704.688 5.016 2.906 9 2.906 12.094 0 3.094-1.797 4.688-1.797 1.609-7.5 2.906-.797.203-.797.656t.89.453l2.61-.11q5 0 8.25 2.25t6.75 8.86l14.797 28.39Q37.5 68 37.843 68q.36 0 .36-.547T37.906 66zm26.687-33.797q-1.89-10.5-6.547-18.406-4.64-7.89-12.14-13.344-7.5-5.453-16.454-8.25-8.953-2.797-10.656-2.797-.5 0-.5.094 0 .406 2.11 1.406Q39.093.203 46.296 12.453 53.5 24.703 53.5 45.797q0 3.61-.203 7.5 10-1 15.297-1.203 2.312-.094 2.312-1.39 0-1.298-1.86-1.86-1.843-.547-2.64-3.047Q68 29.094 75.141 18.437q7.156-10.64 21.562-16.64 1.39-.594 1.39-1 0-.39-1.5-.89-3.687-1.313-6.687-3.704-3-2.406-4.11-4.703-.593-1.297-1.702-1.297-2.094 0-8 6.703Q70.204 3.594 67.547 12q-2.64 8.406-2.953 20.203z" id="STSongti-SC-Black-6b21"/><path d="M43.906 70h-31q-2 0-3.61-1.094l-2.593 4.688q2.39-.297 5-.297h63.094q2.797 5 3.797 6.25t1.61 1.25q.89 0 4.843-2.36 3.953-2.343 6.047-4 2.11-1.64 2.11-2.937 0-1.5-2.11-1.5h-33q-.297-.797-1.39-1.094v-37h.39q11 13.094 16.5 34.297 3.906-1.406 9.25-3.86 5.36-2.437 6.25-3.187.906-.75.906-1.656 0-.906-1.656-1.203-1.64-.297-2.844-1.203-1.203-.89-4.094-3.89Q71.594 40.905 59 31.905h18.406q1.89 3.297 3.735 6.344 1.859 3.047 2.25 3.39.406.36.953.36.562 0 3.312-1.953t5.594-4.297q2.844-2.344 3.89-3.594 1.063-1.25 1.063-2.156 0-1.406-2-1.406h-39.5v-25.5q0-3.297.203-7L57-7.296q0-.704-.297-1-.297-.298-2.203-1-1.906-.704-5.36-1.345-3.437-.656-4.843-.656-.703 0-.703 1.5l.11 3.89q.202 4 .202 9v25.5H9.296q-2 0-3.593-1.093l-2.61 4.703q2.407-.297 5-.297h35.813zM12.5 63.094q1.797 0 8.094-2.203 6.312-2.188 10.203-6.5Q34.703 50.094 34.703 44q0-3.594-2.203-6T27 35.594q-1.906 0-3.86 1.593-1.937 1.61-1.937 6.516 0 13.203-8.11 18.203-1.093.688-1.093.938t.5.25z" id="STSongti-SC-Black-5e73"/><path d="M44.703 47.297h-14.5v-25l17 3.203q.5 0 .5-.36 0-.343-1.5-1.14-12.11-6.406-22.86-12.406-10.75-6-12.046-7-1.297-1-1.797-1t-.797.703L6.093 10q-2.187 5.094-3.187 7.703l15.688 2.5v27.094H8.297q-2 0-3.594-1.094l-2.61 4.703q2.407-.312 5-.312h11.5v20.812q0 5-.187 8.89 8.39-.796 11.594-1.5 3.203-.702 3.203-1.75 0-1.046-3-2.75V50.595h3.594q2.203 3.312 3 4.656.797 1.344 1.703 1.344 1.703 0 7.297-6.688Q50.703 62.5 52.297 83q17.906-2.906 17.906-5.094 0-.703-1.703-1.453-1.703-.75-3.203-4.453-1.5-3.703-4.594-10.297h19.39q2.11 4.094 2.61 4.734.5.657 1.39.657.907 0 5-2.594 4.11-2.594 6.25-4.047Q97.5 59 97.5 57.593q0-1.39-3.797-2.39-.5-15.5-1.5-32t-1.86-20.812Q89.5-1.906 87.25-4.656t-6.406-4.25q-4.14-1.5-7.64-1.5T69.405-7.5q-.5 4.203-3.453 6.25Q63 .797 57.593 2q-1 .203-1 .64 0 .454 1.204.454l6.797-.188q6 0 8.75.797T77.094 6q1 1.5 1.547 5.844.562 4.36 1.359 16.25-8.5-4.688-17.047-10.797-8.547-6.094-10.547-7.906-2-1.797-2.5-1.797t-1 .593q-.5.61-3.062 5.11-2.547 4.5-3.64 7 23.202 6 38 11.703.702 12.906.89 26.406H59q-2.5-4.812-4.797-8.203 12.703-.61 16.094-4.016 3.406-3.39 3.406-6.437t-2.062-5.36q-2.047-2.296-4.594-2.296t-4.094 1.453Q61.406 35 61.406 38.344q0 3.36-1.656 6.406-1.656 3.047-4.844 4.344-.906.312-.906.703-6.406-9.297-11.906-13.844-5.5-4.547-6.688-4.547-.312 0-.312.438 0 .453.703 1.25 5.406 6.312 8.906 14.203z" id="STSongti-SC-Black-5747"/><path d="M49.406 52.297h3.89v11h-15q-2 0-3.593-1.094l-2.61 4.703q2.407-.312 5-.312h16.313v6.5q0 4.61-.203 9.312 9.5-.906 12.438-1.61 2.953-.702 2.953-1.655 0-.938-2.594-1.735l-.406-10.812h10.61q2.702 5.703 3.89 7.406 1.203 1.703 1.953 1.703t4.5-2.656q3.75-2.64 6.25-4.89 2.5-2.25 2.5-3.563 0-1.297-2.297-1.297H65.406l-.406-11h4.703Q72.5 58.5 74 58.5q.594 0 5.047-2.5 4.453-2.5 6.656-4.11 2.203-1.593 2.203-2.484 0-1.406-3.703-2.61V.204q1.89 3.297 2.484 4.047.61.75 1.454.75Q89 5 91.75 2.75t5.094-4.39q2.36-2.157 2.36-3.454 0-1.312-2.11-1.312H34.406q-2 0-3.61-1.094l-2.593 4.703q2.39-.297 5-.297h5.203v50.188q0 5-.203 8.906 7.5-2 11.203-3.703zm.094-13h22.297V49h-20.5q-.703-1-1.797-1.297zM71.797 36H49.5v-9.797h22.297zm0-23.297v10.203H49.5V12.703zm0-15.797v12.5H49.5v-12.5zM23 53q6.5-.594 6.5-2.094 0-1-2.594-1.703v-56.61q0-.796-.312-1.187-.297-.406-1.953-1.11-1.641-.702-4.938-1.25-3.297-.546-4.906-.546-.703 0-.703 1l.312 9.406q.094 4.39.094 8.297v31.094q-1.594-2.5-5.703-6.953-4.094-4.438-5-4.438-.297 0-.297.5T4.094 29q6.312 11.203 9.406 23.297 3.094 12.11 5.094 29.203 6.906-1.703 11.047-3.11 4.156-1.39 5.109-2 .953-.593.953-1.296 0-.688-1.312-.844-1.297-.156-2.344-1.75t-4-8.297Q25.094 57.5 23 53z" id="STSongti-SC-Black-503c"/><path d="M25.203 24.906q5.703 0 9.703-4 4-4 4-9.703 0-5.703-4-9.703-4-4-9.703-4-5.703 0-9.703 4-4 4-4 9.703 0 5.703 4 9.703 4 4 9.703 4zm0-19.703q2.5 0 4.25 1.75t1.75 4.25q0 2.5-1.812 4.25-1.797 1.75-4.203 1.75-2.391 0-4.188-1.812-1.797-1.797-1.797-4.204Q19.203 8.797 21 7q1.797-1.797 4.203-1.797z" id="STSongti-SC-Black-3002"/></defs><g transform="matrix(.0833 0 0 -.0833 29.402 274.368)"><use xlink:href="#STSongti-SC-Black-6ce8"/><use x="100" xlink:href="#STSongti-SC-Black-ff1a"/><use x="200" xlink:href="#STSongti-SC-Black-6bcf"/><use x="300" xlink:href="#STSongti-SC-Black-884c"/><use x="400" xlink:href="#STSongti-SC-Black-7684"/><use x="500" xlink:href="#STSongti-SC-Black-7ad6"/><use x="600" xlink:href="#STSongti-SC-Black-7ebf"/><use x="700" xlink:href="#STSongti-SC-Black-4ee3"/><use x="800" xlink:href="#STSongti-SC-Black-8868"/><use x="900" xlink:href="#STSongti-SC-Black-8be5"/><use x="1000" xlink:href="#STSongti-SC-Black-961f"/><use x="1100" xlink:href="#STSongti-SC-Black-6210"/><use x="1200" xlink:href="#STSongti-SC-Black-5458"/><use x="1300" xlink:href="#STSongti-SC-Black-516c"/><use x="1400" xlink:href="#STSongti-SC-Black-6f14"/><use x="1500" xlink:href="#STSongti-SC-Black-573a"/><use x="1600" xlink:href="#STSongti-SC-Black-6b21"/><use x="1700" xlink:href="#STSongti-SC-Black-7684"/><use x="1800" xlink:href="#STSongti-SC-Black-5e73"/><use x="1900" xlink:href="#STSongti-SC-Black-5747"/><use x="2000" xlink:href="#STSongti-SC-Black-503c"/><use x="2100" xlink:href="#STSongti-SC-Black-3002"/></g></g><g id="text_12"><defs><path d="M38.5 5.703q-2.594.094-6.547.188Q28 6 23.797 6q-4.203 0-8.156-.11-3.938-.093-6.547-.187v2.89l6.203.907q3.5.797 3.5 3.906V60l-11.89-7.703-1.704 3.11Q6.906 56.5 9.5 58.093q2.594 1.61 5.5 3.5 2.906 1.906 5.797 3.906 2.906 2 5.297 4h3.312V13.406q0-3.5 3.5-4l5.594-.812z" id="STSongti-SC-Black-31"/><path d="M5.594 68.5h38.5v-1.703q-1.688-3-4.688-10.61-3-7.593-7.5-20.093Q23.203 11.5 22.296 6h-6q1.204 5.203 2.798 10.64 1.61 5.454 3.75 11.75Q25 34.704 27.797 42.048q2.797 7.36 6.406 16.25H9.906q-2.61 0-2.703-1.297l-.797-4.203H4.203z" id="STSongti-SC-Black-37"/><path d="M33 67.094h40.906q3.39 6.61 4.031 7.36.657.75 1.407.75t1.406-.36q.656-.344 3.844-2.75 3.203-2.39 4.953-3.953 1.75-1.547 2.25-2.25.5-.688.5-1.094 0-1-2.297-1H63.297Q62.5 62.5 60.5 62.094V45.5h10.406q.89 1.797 2.594 4.75 1.703 2.953 2.25 3.094.547.156.75.156 1.406 0 6.75-4.61 5.344-4.593 5.344-5.64 0-1.047-2.297-1.047H60.5V22.297h17.406q.89 1.5 2.938 4.75 2.062 3.25 2.562 3.953.5.703 1 .703 1.5 0 7.594-4.906 6.094-4.89 6.094-6.344 0-1.453-2.89-1.453H60.5V3q0-3.297.203-6.906l.094-3.297q0-1-.703-1.688-.688-.703-3.5-1.5-2.797-.812-5.203-.812-2.391 0-3.047.5-.64.5-.64 1.906L47.905-3Q48 .5 48 4.5V19H9.406q-2 0-3.61-1.094l-2.593 4.688q2.39-.297 5-.297h12.703v18.61q0 5-.203 8.89Q27.797 48.5 33.906 45.5H48v18.297H30.594q-9.188-12.594-17.39-18.75-8.204-6.14-9.798-6.14-.312 0-.312.187 0 .5 1.203 1.61 8.11 7.796 13.453 19.093 5.344 11.297 6.844 23.703 5.203-1.203 9.953-2.953 4.75-1.75 6.344-2.703Q42.5 76.906 42.5 76q0-.906-2.203-1.25t-4-2.844zm15-24.89H34.797q-1-.704-2.297-.798v-19.11H48z" id="STSongti-SC-Black-5e74"/><path d="M51 68.203q-1 .703-1.547 1.594-.547.906-.547 2L49 74.203q0 2.594-.703 3.844t-2.61 2.344q-1.89 1.109-1.89 1.312 0 .39 3.906.39 6.703 0 10.844-2.202 4.156-2.188 4.156-5.594 0-3.797-3.406-6.094h19.11q1.187 2.297 2.843 4.688 1.656 2.406 2.203 3Q84 76.5 84.5 76.5q.906 0 6.844-4.36 5.953-4.343 5.953-5.796 0-1.438-3-1.438H67.5q11.203-1.11 11.203-2.61 0-.796-2.406-2V52.5H80q1.094 2.297 2.547 4.438 1.453 2.156 1.906 2.656.453.5.953.5 1.297 0 6.688-4.297Q97.5 51.5 97.5 50.094q0-.89-2.203-.89h-19V38.5q0-2.094.11-3l.093-1.797q0-1.797-6.594-2.406.594 0 6.485-2.5 5.906-2.5 6.953-3.25 1.062-.75 1.062-1.453 0-1-1.562-1.25-1.547-.25-2.5-1.203-.938-.938-5.5-6.297-4.547-5.344-8.64-8.75 12.296-3.5 30.89-3.5 1.203 0 1.203-.5t-1.5-1.188Q93.703 0 91.39-3.25 89.094-6.5 88.203-10q-.406-1.203-1.86-1.203-1.437 0-12.187 3.406Q63.406-4.407 56.296 0q-10.5-5.703-23-7.64-12.5-1.954-19.093-1.954-1.797 0-1.797.656 0 .641 2.39 1.141Q34.704-4 49.204 5.406 42 12.296 37.906 23h-2.11q-2 0-3.593-1.094l-2.61 4.688q2.407-.297 5-.297h31.204q3 5 3.406 4.906-3.406-.203-4.11.188-.687.406-.687 2.203v1.812H49.5V34.5q0-2.203-3-3.063-3-.843-5.203-.843-2.203 0-2.797.343-.594.36-.594 1.266L38 35.5q.094 2 .094 8.906v4.797h-5.688q-2 0-3.61-1.11l-2 3.61q-.5-26.297-4-36.25T12.439-2.64q-6.844-8.156-7.844-8.156-.188 0-.188.406Q4.406-10 5-9q5.297 8.5 7.75 19.5 2.453 11 2.453 26.75t-.406 35.344q7.703-1.688 13.906-4.39zm-13.203-3.297H27.594q-.688-1.11-.688-2.312 0-6.89-.11-9.89 2-.204 4.407-.204h6.89v5.594q0 3.203-.296 6.812zm26.406 0h-21.5q4.5-.5 6.844-1 2.36-.5 2.36-1.453 0-.953-2.407-2.156V52.5h14.906v7.406q0 2.094-.203 5zm.203-15.703H49.5v-10.5h14.906zM56 10.406q6.703 5.89 9.906 12.594h-25.5Q45.796 15.297 56 10.406z" id="STSongti-SC-Black-5ea6"/><path d="M33.5 57.703Q26.703 51.093 18 46q-8.703-5.094-9.906-5.094-.188 0-.188.094 0 .406 2 2.094 20.297 17.203 23.89 40.61 14.298-3.11 16.25-3.86Q52 79.094 52 78.188q0-.891-1.86-1.844-1.843-.938-3.25-2.438-1.39-1.5-4.484-5.906H63q3.5 4.594 4.39 5.5.907.906 1.61.906 1.406 0 5.594-3 4.203-3 6.703-4.906 2.5-1.906 2.5-3.25t-3.094-1.75q-1.703-.203-2.61-.813-.89-.593-2.093-2.187-7.297-9.406-15.094-15.906 14-5 38.094-5.188 2 0 2-.453t-2.25-1.406q-2.25-.953-4.656-4.11-2.39-3.14-3.188-6.343-.312-1.39-1.765-1.39-1.438 0-7.344 1.296-5.89 1.297-9 2.297 3-1.703 5.844-3.61 2.859-1.89 3.156-2.343.297-.438.297-.844 0-.906-2-1.406v-20q0-1.688.11-3l.202-2.188q0-.61-.406-.906-.406-.297-2.25-1-1.844-.703-4-1.047-2.156-.36-3.953-.36-1.797 0-2.047.313-.25.297-.25 1.188v5.11H36.203V-7q0-.594-.25-.89-.25-.313-1.953-.907-1.703-.61-4.156-1.047-2.438-.453-4.64-.453-.704 0-.61 1 .203 2.297.203 7.39v26.313q-4.094-1.203-11.25-2.765-7.14-1.547-8.203-1.547-1.047 0-1.047.203 0 .406 2.797 1.297 22.406 7.812 38.203 21-6.203 6.312-11.797 15.11zm6.406 7q-1.812-2.406-3.906-4.5 6.297-6.906 14.906-12.297 8 8 12.39 16.797zM52.703 36.5q-8.906-5.703-21.297-10 2.5-.906 5.89-2.5h29.61q2.89 4 3.297 4.094-10.406 3.406-17.5 8.406zM67.5.5v20.203H38.094q-.797-.797-1.89-1.203V.5z" id="STSongti-SC-Black-5404"/><path d="M75.094 38.703H57V.593h20.594v21.11q0 5.797-.188 9.5 3.89-.406 8.781-1.203 4.907-.797 5.704-1.297.812-.5.812-1 0-1-2.406-1.906V3.203q0-5.406.11-7.406l.187-3.094q0-.703-.703-1.297-.688-.61-3.641-1.25-2.953-.656-5.453-.656-2.5 0-2.86.25-.343.25-.343 1.656v5.89H22.297l-2-3.5Q19.5-7.5 18.594-7.5q-.89 0-5.094 2.25Q9.297-3 8.687-2.5q-.593.5-.593 1T9.14-.25q1.062.75 1.406 1.547.36.797.36 2.797V24.5q0 4.703-.313 7.594 3.203-.188 7.953-.89 4.75-.704 5.547-1.204.812-.5.812-1 0-1.094-2.5-2.094V.594h22.188v38.11h-17.5l-1.89-2.907q-.704-1.203-1.61-1.203-.89 0-5.844 2.656-4.953 2.656-4.953 3.344 0 .703.953 1.656t1.297 1.89q.36.954.36 3.86v15.906q0 4.688-.313 7.594 14.203-1.906 14.203-3.703 0-.89-2.703-2V42h18v30.797q0 5-.188 8.906 8.594-1 11.938-1.75 3.36-.75 3.36-1.812 0-1.047-2.704-1.938V42h18.094v20.094q0 5.812-.188 9.5 10.188-1.297 12.485-2.047 2.312-.75 2.312-1.656 0-.891-2-1.688v-18.61q0-5.39.094-7.5L88 37q0-1.406-3.547-2.453t-6.11-1.047q-2.546 0-2.906.25-.343.25-.343 1.656z" id="STSongti-SC-Black-51fa"/><path d="M49.203 68.203H50q3.203 5.297 3.547 5.547.36.25.75.25.797 0 4.547-2.953 3.75-2.953 4.75-4.047 0 9.406-.094 14.297 4.797-.297 9.438-1 4.656-.703 5.359-1.11.703-.39.703-1.14 0-.75-1.11-1.5-1.093-.75-1.593-2.156-.5-1.391-.953-5.641-.438-4.25-.938-13.547H80.5q1.797 3.5 2.688 4.89.906 1.407 1.656 1.407.75 0 3.75-2.094l5.61-4q2.702-1.906 2.702-3.36 0-1.452-3.203-2.452-.703-17.39-1.61-30.89-.89-13.5-1.796-17.157-.89-3.64-3-5.938-2.094-2.312-6.25-3.656-4.14-1.36-7.14-1.36-2.204 0-2.313 1.907-.297 4.594-1.906 6.406Q68.094.703 62.406 2 61 2.297 61 2.547q0 .25.344.39.36.157 5.25.157 4.906 0 7.656.656t3.89 2.5q1.157 1.844 2.11 9.14.953 7.313 1.594 18.75.656 11.454.562 17.766h-8.203q-1-19-3.703-29.5T61.937 5.25q-5.843-6.656-16.5-11.547-10.64-4.906-12.234-4.906-.297 0-.297.203 0 .406 1.594 1.406Q49.906-.797 54.906 6.796 24.406-.796 11.5-5.593q-1.203-.5-1.86-.5-.64 0-.734.594L5.5 5.703q13 .39 21 .797v5.594H14q-2 0-3.594-1.094l-2.61 4.703q2.407-.297 5-.297H26.5v6H12.406q-2 0-3.61-1.11L6.204 25q2.39-.297 5-.297H26.5v6.203h-8.203q0-1.703-.656-2.156-.641-.453-2.438-.953-1.797-.5-3.75-.5t-2.562.047q-.594.062-.594 1.062l.203 6.797v7.594q0 3.11-.297 7.297 6.094-1.688 10.39-4H26.5v7.5q8.906-.39 10.453-.797 1.547-.39 1.547-1.047 0-.656-1.703-1.844v-3.812H44q1.094 1.61 1.938 3.047.859 1.453 1.562 1.453 1.203 0 5.953-2.657 4.75-2.64 4.75-3.843 0-1.188-2.703-2.39v-5.5q0-2.298.094-3.298l.11-1.812q0-.5-.313-.844Q55.094 29.906 53 29q7.203-4.703 7.203-6.406 0-1.188-1.906-1.188h-21.5v-6h8.61q2.687 4.39 3.093 4.781.406.407.906.407.797 0 4.485-3 3.703-3 3.703-4.25t-2.094-1.25H36.797V7l19.11 1.297q3.593 5.703 5.296 15 1.703 9.297 2.203 28.61H57q-2 0-3.594-1.11l-2.61 4.703q2.407-.297 5-.297H63.5l.094 9.703h-14.39v-3.5q0-2.61.093-3.703l.11-2.11q0-.593-.5-1.14-.5-.547-3-1.297-2.5-.75-4.313-.75-1.797 0-2.203.344-.391.344-.391 1.344H25.203q-.297-.797-3.11-1.844-2.796-1.047-6.093-1.047-1 0-1 1.094l.203 3.906q.094 2.5.094 7.297v1.406H8.703q-2 0-3.61-1.11L2.5 68.5q2.406-.297 5-.297h7.797v5.703q0 3.5-.297 7.594 4.094-.094 7.594-.406 3.5-.297 4.25-.703.75-.391.75-.891 0-1.094-2.297-2.094v-9.203H39v7.39q0 2.5-.203 5.813 9.406-.406 11.047-.812 1.656-.39 1.656-1.25 0-.844-2.297-1.844zM39 64.906H25.297v-7.5H39zm-12.5-22.11h-7q-.406-.702-1.203-1.202v-7.39H26.5zm18.594-8.593v8.594h-8.297v-8.594zm5.61-5.797q-1.298-.312-3.11-.312-1.797 0-2.203.453-.391.453-.297 2.36h-8.297v-6.204h11.406q1.797 2.39 2.5 3.703z" id="STSongti-SC-Black-52e4"/><path d="M45.703 64.906h1.094q2 3.688 2.89 4.938.907 1.25 1.516 1.25 1.094 0 4.734-3.797 3.657-3.797 3.657-4.75 0-.953-1.688-.953H45.703v-12.39h.797q2.203 4 3.047 5.046.86 1.047 1.547 1.047 1.11 0 7-5.094Q61.5 65 62 81.593q4.594-.593 9.797-2 5.203-1.39 6-1.89.797-.5.797-1.203 0-.906-1.406-1.203-1.391-.297-2-1.203-.594-.89-2.797-7.344-2.188-6.453-3.891-10.344h12.703q2.203 4.5 3.344 6.25 1.156 1.75 1.953 1.75 1.297 0 6.64-4.562 5.36-4.547 5.36-5.657 0-1.093-2-1.093H85.594q5-1.188 5.953-1.688.953-.5.953-1.203 0-.703-1.25-1.36-1.25-.64-1.797-1.5-.547-.843-1.25-3.343Q83.406 25.297 77 15.203q7.203-7.11 19.797-13.11 1.11-.5 1.11-.843 0-.344-1.11-.75-5.203-1.594-10.5-9.406-.703-1-1.36-1-.64 0-1.187.36-.547.343-3.453 3.25-2.89 2.89-5.594 6.202Q72 3.203 69.797 6.796q-6.5-6.296-16.406-12-9.891-5.702-11.297-5.702-.39 0-.39.36 0 .343 1.202 1.14Q57.296.297 66 14.204q-5.094 11.702-5.5 25.89-1.797-3-5.25-7.453-3.453-4.438-4.453-4.438-.203 0-.203.5t.61 1.797Q54.5 36.906 57 45.906H10.297q-2 0-3.594-1.11L4.093 49.5q2.407-.297 5-.297H15v12.39h-3.797q-2 0-3.61-1.093L5 65.203q2.406-.297 5-.297h5V72q0 5-.203 8.906 3.5-.203 7.453-.765 3.953-.547 4.703-1 .75-.438.75-1.25 0-.797-2.203-1.797V64.906h9.703v7.5q0 5-.203 8.89Q48.406 80 48.406 77.907q0-1-2.703-2.203zm-10.5-3.312H25.5v-12.39h9.703zm42.094-8.5H67.094Q64.906 48 62.5 43.594q2.406-12.297 8.203-20.797Q75.297 33 77.297 53.094zm-53.5-13.688h12.906q2.297 4.89 3.797 4.89 1.297 0 6.344-3.155 5.062-3.141 5.062-4.5 0-1.344-3.203-2.235v-31.5q0-4.406-1.812-6.797-1.797-2.406-5-3.5Q38.703-8.5 36.344-8.5 34-8.5 33.75-5.75t-1.656 4.453q-1.39 1.703-5 2.594Q26 1.594 26 2q0 .406 1.297.406l3.203-.11q3.703 0 5.5.798 1.797.812 1.797 2.812v8.89h-15V-6q0-1-.656-1.594-.641-.61-3.297-1.36-2.64-.75-5.64-.75-1.298 0-1.298 1L12.094-4q.203 4.906.203 8.906v30q0 5-.203 8.89 8-2.5 11.703-4.39zm-1-10.812h15v7.5H24.5q-.594-1.094-1.703-1.39zm15-3.297h-15v-7.203h15z" id="STSongti-SC-Black-6563"/><path d="M55.906 66.797h18q4.297 7.11 4.89 7.86.61.75 1.25.75.657 0 2.798-1.657Q85 72.094 87.5 69.89q2.5-2.187 3.39-3.187.907-1 .907-1.797 0-1.406-2.39-1.406h-33.5V49.906h12.187q.906 1.5 2.203 3.39Q71.594 55.204 72 55.5q.406.297.797.297 1.406 0 7.094-4.11 5.703-4.093 5.703-5.546 0-1.438-3.594-2.235v-12.61q0-5.296.094-6.796l.11-2.797q0-.5-.36-.906-.344-.39-2.047-1.25-1.703-.844-5.047-1.344-3.344-.5-4.094-.5-.75 0-.953.5-.203.5-.203 1.797v3.094H32.203V20q0-.797-.453-1.203-.453-.39-2.36-1.14-1.89-.75-4.75-1.063-2.843-.297-3.593-.297t-.75.797L20.5 21.5q.203 3 .203 5.5v18.703q0 4.39-.297 8.703 8.89-2.312 13.5-4.5H44v24.39q0 5-.203 8.907 7.703-.297 11.453-.906 3.75-.594 3.75-2 0-1.39-3.094-2.594zM69.5 26.407v20.187h-34q-1.203-1-3.297-1.594V26.406zM19.094 15.093q.812 0 1.953-4.797 1.156-4.797 1.156-8.094 0-6.203-3.406-9.547-3.39-3.36-6.797-3.36-3.406 0-5.313 1.563Q4.798-7.594 4.798-5q0 3.594 3.11 5.406 4.89 2.797 6.89 4.344 2 1.547 2.703 3.344.703 1.812 1 5.61.203 1.39.594 1.39zm54 0q2.906 0 9.453-2.25Q89.094 10.594 92.64 7q3.562-3.594 3.562-7.188 0-3.609-2.36-6.156Q91.5-8.906 88-8.906q-1.797 0-3.11.953-1.296.953-1.796 2.406-.5 1.453-.5 4.344 0 4.5-2.406 8.5-2.391 4-6.782 6.61-1.11.593-1.11.89 0 .297.798.297zm-41.594-.5q1.203 0 5.844-2.25 4.656-2.25 7.453-5.547Q47.594 3.5 47.594-.047t-2.203-5.75Q43.203-8 40.547-8q-2.64 0-4.14 1.406-1.5 1.39-1.5 3.688 0 .812.39 2.562.406 1.75.406 3.938 0 6-4.11 9.812Q31 14 31 14.296q0 .298.5.298zm20.5-.188q1.5 0 6.844-1.86 5.36-1.843 8.203-4.905 2.86-3.047 2.86-7.235 0-3.312-2.157-5.562-2.156-2.25-5.063-2.25-2.89 0-4.343 1.812-1.438 1.797-1.14 4.344.296 2.547.296 4.047 0 3.406-1.156 5.703-1.14 2.297-3 3.797-1.844 1.5-1.844 1.797 0 .312.5.312z" id="STSongti-SC-Black-70b9"/><path d="M22.094 77h54.11q.702 1.203 2.593 3.797 1.906 2.61 2.297 2.86.406.25.812.25 1.188 0 7.531-4.86 6.36-4.844 6.36-5.75 0-.89-1.047-1.453-1.047-.547-3.547-1.438V4.703q0-4.703.094-6.61l.11-3.5q0-1.187-1-1.937T86.5-8.797Q83.594-9.5 81.297-9.5t-2.75.547q-.453.547-.453 2.156v3.5h-55.39v-2.61q0-.89-.813-1.843-.797-.953-4.094-1.703-3.297-.75-5.406-.75-2.094 0-2.344.312-.25.297-.25 1 0 .688.203 4.797.203 4.094.203 9.5v66.688q0 5-.203 8.906 6.297-1.297 12.094-4zm17.203-20.203q-3.5-3.39-9-7.594Q24.797 45 23.907 45q-.313 0-.313.297 0 .406 1.11 1.797 5 6.61 7.593 12.5 2.61 5.906 4.406 14.11H24.297q0-1.204-1.594-1.798V29.594Q37 36 45.797 43.906q-5 5.5-6.5 12.89zm5.906 16.906q5.89-1.61 6.594-2.062.703-.438.703-1.094 0-.64-1.547-1.14-1.547-.5-5.547-5.61h12.89q3.61 5.406 4.798 5.406.703 0 6-2.953 5.312-2.953 6.5-3.906 1.203-.938 1.203-1.844 0-.906-2.203-1.094-1.094-.11-2.953-1.812-1.844-1.688-5.641-5.797-3.797-4.094-6.703-6.5Q67 42.703 78.094 41.094v32.61zM42.797 60.5q-.5-.594-1.594-1.703 4.203-6.203 9.797-9.703Q55.703 54.5 58.297 60.5zM51 39.297q-4.297-2.5-7.594-4.094 10.89-.406 14.282-3.062 3.406-2.641 3.406-6.344 0-2.39-2.157-4.297-2.14-1.906-4.796-1.906-2.641 0-4.188 1.547-1.547 1.562-1.547 4 0 2.453-1.11 4.906-1.093 2.453-3.093 3.156-2 .703-2.61 1.094-8.687-3.89-18.89-6.39V0h55.39v38.797Q74.298 36.5 72 30q-.406-1.203-1.594-1.203-1.406 0-9.656 4.547-8.25 4.562-9.75 5.953zM45.906 17.5q22 0 22-11.203 0-2.797-2.062-4.344-2.047-1.547-4.5-1.547-2.438 0-7.547 5.5-7.797 8.39-21.594 9.39-1.906.11-1.906.5 0 .704 5.75 1.204t9.86.5z" id="STSongti-SC-Black-56fe"/></defs><g transform="matrix(.12 0 0 -.12 133.343 17.04)"><use xlink:href="#STSongti-SC-Black-32"/><use x="46.9" xlink:href="#STSongti-SC-Black-30"/><use x="93.8" xlink:href="#STSongti-SC-Black-31"/><use x="140.7" xlink:href="#STSongti-SC-Black-37"/><use x="187.6" xlink:href="#STSongti-SC-Black-5e74"/><use x="287.6" xlink:href="#STSongti-SC-Black-5ea6"/><use x="387.6" xlink:href="#STSongti-SC-Black-53"/><use x="433.9" xlink:href="#STSongti-SC-Black-4e"/><use x="512.6" xlink:href="#STSongti-SC-Black-48"/><use x="593.8" xlink:href="#STSongti-SC-Black-34"/><use x="640.7" xlink:href="#STSongti-SC-Black-38"/><use x="687.6" xlink:href="#STSongti-SC-Black-5404"/><use x="787.6" xlink:href="#STSongti-SC-Black-961f"/><use x="887.6" xlink:href="#STSongti-SC-Black-6210"/><use x="987.6" xlink:href="#STSongti-SC-Black-5458"/><use x="1087.6" xlink:href="#STSongti-SC-Black-516c"/><use x="1187.6" xlink:href="#STSongti-SC-Black-6f14"/><use x="1287.6" xlink:href="#STSongti-SC-Black-51fa"/><use x="1387.6" xlink:href="#STSongti-SC-Black-52e4"/><use x="1487.6" xlink:href="#STSongti-SC-Black-573a"/><use x="1587.6" xlink:href="#STSongti-SC-Black-6b21"/><use x="1687.6" xlink:href="#STSongti-SC-Black-6563"/><use x="1787.6" xlink:href="#STSongti-SC-Black-70b9"/><use x="1887.6" xlink:href="#STSongti-SC-Black-56fe"/></g></g></g></g><defs><clipPath id="p4f1d321147"><path d="M29.402 23.04h446.4V244.8h-446.4z"/></clipPath></defs></svg>